<svg xmlns="http://www.w3.org/2000/svg" xmlns:xlink="http://www.w3.org/1999/xlink" id="Layer_1" data-name="Layer 1" viewBox="0 0 213.759 86.089"><defs><style>      .cls-1, .cls-2, .cls-3, .cls-4, .cls-5, .cls-6, .cls-7, .cls-8, .cls-9, .cls-10, .cls-11, .cls-12, .cls-13, .cls-14, .cls-15, .cls-16, .cls-17, .cls-18, .cls-19, .cls-20, .cls-21, .cls-22, .cls-23, .cls-24, .cls-25, .cls-26, .cls-27, .cls-28 {        stroke-width: 0px;      }      .cls-1, .cls-29 {        fill: #9ea0a3;      }      .cls-2 {        fill: url(#linear-gradient);      }      .cls-3 {        fill: url(#linear-gradient-25);      }      .cls-4 {        fill: url(#linear-gradient-11);      }      .cls-5 {        fill: url(#linear-gradient-12);      }      .cls-6 {        fill: url(#linear-gradient-13);      }      .cls-7 {        fill: url(#linear-gradient-10);      }      .cls-8 {        fill: url(#linear-gradient-17);      }      .cls-9 {        fill: url(#linear-gradient-16);      }      .cls-10 {        fill: url(#linear-gradient-19);      }      .cls-11 {        fill: url(#linear-gradient-15);      }      .cls-12 {        fill: url(#linear-gradient-23);      }      .cls-13 {        fill: url(#linear-gradient-21);      }      .cls-14 {        fill: url(#linear-gradient-18);      }      .cls-15 {        fill: url(#linear-gradient-14);      }      .cls-16 {        fill: url(#linear-gradient-22);      }      .cls-17 {        fill: url(#linear-gradient-20);      }      .cls-18 {        fill: url(#linear-gradient-24);      }      .cls-19 {        fill: url(#linear-gradient-26);      }      .cls-20 {        fill: #f58220;      }      .cls-21 {        fill: url(#linear-gradient-4);      }      .cls-22 {        fill: url(#linear-gradient-2);      }      .cls-23 {        fill: url(#linear-gradient-3);      }      .cls-24 {        fill: url(#linear-gradient-8);      }      .cls-25 {        fill: url(#linear-gradient-9);      }      .cls-26 {        fill: url(#linear-gradient-7);      }      .cls-27 {        fill: url(#linear-gradient-5);      }      .cls-28 {        fill: url(#linear-gradient-6);      }      .cls-29 {        stroke: #9ea0a3;        stroke-miterlimit: 10;        stroke-width: .898px;      }    </style><linearGradient id="linear-gradient" x1=".882" y1="14.908" x2="211.11" y2="14.908" gradientUnits="userSpaceOnUse"><stop offset="0" stop-color="#fff"></stop><stop offset=".12" stop-color="#e1e2e1"></stop><stop offset=".32" stop-color="#fff"></stop><stop offset=".58" stop-color="#fff"></stop><stop offset="1" stop-color="#c6c8c9"></stop></linearGradient><linearGradient id="linear-gradient-2" x1="1.156" x2="211.384" xlink:href="#linear-gradient"></linearGradient><linearGradient id="linear-gradient-3" x1="1.156" x2="211.384" xlink:href="#linear-gradient"></linearGradient><linearGradient id="linear-gradient-4" x1="1.156" y1="14.907" x2="211.384" y2="14.907" xlink:href="#linear-gradient"></linearGradient><linearGradient id="linear-gradient-5" x1="1.155" y1="15.107" x2="211.383" y2="15.107" xlink:href="#linear-gradient"></linearGradient><linearGradient id="linear-gradient-6" x1=".302" x2="210.53" xlink:href="#linear-gradient"></linearGradient><linearGradient id="linear-gradient-7" x1=".608" x2="210.836" xlink:href="#linear-gradient"></linearGradient><linearGradient id="linear-gradient-8" x1=".163" y1="48.069" x2="207.705" y2="50.54" xlink:href="#linear-gradient"></linearGradient><linearGradient id="linear-gradient-9" x1=".778" y1="47.739" x2="208.32" y2="50.21" xlink:href="#linear-gradient"></linearGradient><linearGradient id="linear-gradient-10" x1=".171" y1="47.433" x2="207.713" y2="49.904" xlink:href="#linear-gradient"></linearGradient><linearGradient id="linear-gradient-11" x1=".174" y1="47.156" x2="207.716" y2="49.627" xlink:href="#linear-gradient"></linearGradient><linearGradient id="linear-gradient-12" x1=".176" y1="46.958" x2="207.718" y2="49.429" xlink:href="#linear-gradient"></linearGradient><linearGradient id="linear-gradient-13" x1="1.096" y1="46.716" x2="208.637" y2="49.187" xlink:href="#linear-gradient"></linearGradient><linearGradient id="linear-gradient-14" x1=".975" y1="14.771" x2="211.203" y2="14.771" xlink:href="#linear-gradient"></linearGradient><linearGradient id="linear-gradient-15" x1="1.249" y1="14.771" x2="211.477" y2="14.771" xlink:href="#linear-gradient"></linearGradient><linearGradient id="linear-gradient-16" x1="1.249" y1="14.771" x2="211.477" y2="14.771" xlink:href="#linear-gradient"></linearGradient><linearGradient id="linear-gradient-17" x1="1.249" y1="14.77" x2="211.477" y2="14.77" xlink:href="#linear-gradient"></linearGradient><linearGradient id="linear-gradient-18" x1="1.248" y1="14.97" x2="211.476" y2="14.97" xlink:href="#linear-gradient"></linearGradient><linearGradient id="linear-gradient-19" x1=".395" y1="14.771" x2="210.623" y2="14.771" xlink:href="#linear-gradient"></linearGradient><linearGradient id="linear-gradient-20" x1=".7" y1="14.771" x2="210.929" y2="14.771" xlink:href="#linear-gradient"></linearGradient><linearGradient id="linear-gradient-21" x1="193.392" y1="67.789" x2="193.392" y2="53.772" gradientUnits="userSpaceOnUse"><stop offset="0" stop-color="#fff"></stop><stop offset=".12" stop-color="#e1e2e1"></stop><stop offset=".32" stop-color="#fff"></stop><stop offset=".79" stop-color="#fff"></stop><stop offset="1" stop-color="#c6c8c9"></stop></linearGradient><linearGradient id="linear-gradient-22" x1="196.985" y1="59.796" x2="196.985" y2="45.78" gradientUnits="userSpaceOnUse"><stop offset="0" stop-color="#fff"></stop><stop offset=".12" stop-color="#e1e2e1"></stop><stop offset=".32" stop-color="#fff"></stop><stop offset=".797" stop-color="#fff"></stop><stop offset="1" stop-color="#c6c8c9"></stop></linearGradient><linearGradient id="linear-gradient-23" x1="199.695" y1="51.306" x2="199.695" y2="37.29" gradientUnits="userSpaceOnUse"><stop offset="0" stop-color="#fff"></stop><stop offset=".12" stop-color="#e1e2e1"></stop><stop offset=".32" stop-color="#fff"></stop><stop offset=".752" stop-color="#fff"></stop><stop offset=".951" stop-color="#c6c8c9"></stop></linearGradient><linearGradient id="linear-gradient-24" x1="21.165" y1="53.281" x2="21.165" y2="69.265" gradientUnits="userSpaceOnUse"><stop offset="0" stop-color="#fff"></stop><stop offset=".12" stop-color="#e1e2e1"></stop><stop offset=".205" stop-color="#fff"></stop><stop offset=".58" stop-color="#fff"></stop><stop offset="1" stop-color="#c6c8c9"></stop></linearGradient><linearGradient id="linear-gradient-25" x1="16.467" y1="45.25" x2="16.467" y2="55.611" gradientUnits="userSpaceOnUse"><stop offset="0" stop-color="#fff"></stop><stop offset=".162" stop-color="#e1e2e1"></stop><stop offset=".32" stop-color="#fff"></stop><stop offset=".58" stop-color="#fff"></stop><stop offset="1" stop-color="#c6c8c9"></stop></linearGradient><linearGradient id="linear-gradient-26" x1="12.707" y1="44.765" x2="12.707" y2="38.082" xlink:href="#linear-gradient"></linearGradient></defs><g><path class="cls-29" d="M9.994,29.126H2.225L12.783,1.237h7.968l10.558,27.889h-7.769l-1.793-4.98h-9.96l-1.793,4.98ZM13.58,18.967h6.375l-3.187-9.363-3.188,9.363Z"></path><path class="cls-29" d="M33.575,1.237h16.733c2.789,0,4.814.631,6.076,1.893,1.261,1.262,1.893,3.287,1.893,6.076v3.585c0,2.206-.366,3.918-1.096,5.14-.731,1.222-1.893,2.032-3.486,2.43l4.98,8.765h-7.769l-4.582-8.366h-5.578v8.366h-7.171V1.237ZM51.106,9.206c0-1.594-.797-2.391-2.39-2.391h-7.969v8.367h7.969c1.594,0,2.39-.797,2.39-2.391v-3.585Z"></path><path class="cls-29" d="M86.165,13.588l-5.577,9.96h-5.578l-5.578-9.96v15.538h-7.171V1.237h7.57l7.968,14.741,7.968-14.741h7.57v27.889h-7.172v-15.538Z"></path><path class="cls-29" d="M123.218,21.556c0,2.789-.632,4.815-1.893,6.076-1.262,1.263-3.288,1.893-6.076,1.893h-9.961c-2.788,0-4.814-.63-6.076-1.893-1.262-1.261-1.893-3.287-1.893-6.076v-12.749c0-2.788.631-4.814,1.893-6.076,1.262-1.261,3.288-1.893,6.076-1.893h9.961c2.788,0,4.814.632,6.076,1.893,1.261,1.262,1.893,3.288,1.893,6.076v12.749ZM116.046,8.807c0-1.593-.796-2.39-2.39-2.39h-6.773c-1.594,0-2.39.797-2.39,2.39v12.749c0,1.594.796,2.391,2.39,2.391h6.773c1.594,0,2.39-.797,2.39-2.391v-12.749Z"></path><path class="cls-29" d="M145.131,1.237h7.171v20.319c0,2.789-.631,4.815-1.893,6.076-1.262,1.263-3.287,1.893-6.076,1.893h-9.163c-2.789,0-4.815-.63-6.076-1.893-1.263-1.261-1.893-3.287-1.893-6.076V1.237h7.171v20.319c0,1.594.797,2.391,2.39,2.391h5.976c1.594,0,2.391-.797,2.391-2.391V1.237Z"></path><path class="cls-29" d="M156.23,1.237h16.733c2.789,0,4.814.631,6.076,1.893,1.261,1.262,1.893,3.287,1.893,6.076v3.585c0,2.206-.366,3.918-1.096,5.14-.731,1.222-1.893,2.032-3.487,2.43l4.98,8.765h-7.769l-4.581-8.366h-5.578v8.366h-7.171V1.237ZM173.759,9.206c0-1.594-.796-2.391-2.39-2.391h-7.968v8.367h7.968c1.594,0,2.39-.797,2.39-2.391v-3.585Z"></path><path class="cls-29" d="M182.033,1.237h7.57l6.573,13.545,6.574-13.545h7.57l-10.558,20.519v7.37h-7.171v-7.37l-10.558-20.519Z"></path></g><g><path class="cls-2" d="M9.446,28.852H1.677L12.235.963h7.968l10.558,27.889h-7.769l-1.793-4.98h-9.96l-1.793,4.98ZM13.031,18.693h6.375l-3.187-9.363-3.188,9.363Z"></path><path class="cls-22" d="M33.027.963h16.733c2.789,0,4.814.631,6.076,1.893,1.261,1.262,1.893,3.287,1.893,6.076v3.585c0,2.206-.366,3.918-1.096,5.14-.731,1.222-1.893,2.032-3.486,2.43l4.98,8.765h-7.769l-4.582-8.366h-5.578v8.366h-7.171V.963ZM50.557,8.932c0-1.594-.797-2.391-2.39-2.391h-7.969v8.367h7.969c1.594,0,2.39-.797,2.39-2.391v-3.585Z"></path><path class="cls-23" d="M85.617,13.314l-5.577,9.96h-5.578l-5.578-9.96v15.538h-7.171V.963h7.57l7.968,14.741,7.968-14.741h7.57v27.889h-7.172v-15.538Z"></path><path class="cls-21" d="M122.67,21.282c0,2.789-.632,4.815-1.893,6.076-1.262,1.263-3.288,1.893-6.076,1.893h-9.961c-2.788,0-4.814-.63-6.076-1.893-1.262-1.261-1.893-3.287-1.893-6.076v-12.749c0-2.788.631-4.814,1.893-6.076,1.262-1.261,3.288-1.893,6.076-1.893h9.961c2.788,0,4.814.632,6.076,1.893,1.261,1.262,1.893,3.288,1.893,6.076v12.749ZM115.498,8.533c0-1.593-.796-2.39-2.39-2.39h-6.773c-1.594,0-2.39.797-2.39,2.39v12.749c0,1.594.796,2.391,2.39,2.391h6.773c1.594,0,2.39-.797,2.39-2.391v-12.749Z"></path><path class="cls-27" d="M144.583.963h7.171v20.319c0,2.789-.631,4.815-1.893,6.076-1.262,1.263-3.287,1.893-6.076,1.893h-9.163c-2.789,0-4.815-.63-6.076-1.893-1.263-1.261-1.893-3.287-1.893-6.076V.963h7.171v20.319c0,1.594.797,2.391,2.39,2.391h5.976c1.594,0,2.391-.797,2.391-2.391V.963Z"></path><path class="cls-28" d="M155.681.963h16.733c2.789,0,4.814.631,6.076,1.893,1.261,1.262,1.893,3.287,1.893,6.076v3.585c0,2.206-.366,3.918-1.096,5.14-.731,1.222-1.893,2.032-3.487,2.43l4.98,8.765h-7.769l-4.581-8.366h-5.578v8.366h-7.171V.963ZM173.211,8.932c0-1.594-.796-2.391-2.39-2.391h-7.968v8.367h7.968c1.594,0,2.39-.797,2.39-2.391v-3.585Z"></path><path class="cls-26" d="M181.484.963h7.57l6.573,13.545,6.574-13.545h7.57l-10.558,20.519v7.37h-7.171v-7.37L181.484.963Z"></path></g><g><path class="cls-29" d="M48.119,36.501l4.266,15.999,3.734-15.999h6.933l-6.755,24.888h-6.756l-4.266-15.466-4.266,15.466h-6.755l-6.756-24.888h6.934l3.733,15.999,4.266-15.999h5.688Z"></path><path class="cls-29" d="M87.84,61.389h-6.4v-10.133h-8.889v10.133h-6.399v-24.888h6.399v9.778h8.889v-9.778h6.4v24.888Z"></path><path class="cls-29" d="M111.939,61.389h-19.732v-24.888h19.732v4.978h-13.333v4.8h10.489v4.978h-10.489v5.155h13.333v4.978Z"></path><path class="cls-29" d="M135.227,61.389h-19.732v-24.888h19.732v4.978h-13.333v4.8h10.489v4.978h-10.489v5.155h13.333v4.978Z"></path><path class="cls-29" d="M145.181,56.411h12.977v4.978h-19.376v-24.888h6.399v19.91Z"></path><path class="cls-29" d="M161.528,56.233c6.494.356,10.891.533,13.191.533.545,0,.977-.16,1.297-.48.32-.32.48-.752.48-1.298v-3.2h-8.177c-2.488,0-4.296-.562-5.422-1.689-1.126-1.125-1.689-2.933-1.689-5.422v-1.067c0-2.489.563-4.296,1.689-5.422,1.126-1.125,2.933-1.689,5.422-1.689h12.479v4.978h-11.057c-1.423,0-2.134.711-2.134,2.133v.711c0,1.422.711,2.133,2.134,2.133h6.399c2.323,0,4.03.546,5.12,1.636,1.09,1.091,1.636,2.797,1.636,5.12v1.778c0,2.323-.546,4.03-1.636,5.12-1.09,1.091-2.797,1.636-5.12,1.636-1.209,0-2.488-.024-3.839-.071l-3.271-.143c-2.418-.119-4.919-.284-7.502-.498v-4.8Z"></path></g><g><path class="cls-24" d="M47.508,36.195l4.266,15.999,3.734-15.999h6.933l-6.755,24.888h-6.756l-4.266-15.466-4.266,15.466h-6.755l-6.756-24.888h6.934l3.733,15.999,4.266-15.999h5.688Z"></path><path class="cls-25" d="M87.229,61.083h-6.4v-10.133h-8.889v10.133h-6.399v-24.888h6.399v9.778h8.889v-9.778h6.4v24.888Z"></path><path class="cls-7" d="M111.328,61.083h-19.732v-24.888h19.732v4.978h-13.333v4.8h10.489v4.978h-10.489v5.155h13.333v4.978Z"></path><path class="cls-4" d="M134.616,61.083h-19.732v-24.888h19.732v4.978h-13.333v4.8h10.489v4.978h-10.489v5.155h13.333v4.978Z"></path><path class="cls-5" d="M144.57,56.106h12.977v4.978h-19.376v-24.888h6.399v19.91Z"></path><path class="cls-6" d="M160.917,55.928c6.494.356,10.891.533,13.191.533.545,0,.977-.16,1.297-.48.32-.32.48-.752.48-1.298v-3.2h-8.177c-2.488,0-4.296-.562-5.422-1.689-1.126-1.125-1.689-2.933-1.689-5.422v-1.067c0-2.489.563-4.296,1.689-5.422,1.126-1.125,2.933-1.689,5.422-1.689h12.479v4.978h-11.057c-1.423,0-2.134.711-2.134,2.133v.711c0,1.422.711,2.133,2.134,2.133h6.399c2.323,0,4.03.546,5.12,1.636,1.09,1.091,1.636,2.797,1.636,5.12v1.778c0,2.323-.546,4.03-1.636,5.12-1.09,1.091-2.797,1.636-5.12,1.636-1.209,0-2.488-.024-3.839-.071l-3.271-.143c-2.418-.119-4.919-.284-7.502-.498v-4.8Z"></path></g><g><g><path class="cls-29" d="M10.087,28.989H2.318L12.876,1.1h7.968l10.558,27.889h-7.769l-1.793-4.98h-9.96l-1.793,4.98ZM13.672,18.83h6.375l-3.187-9.363-3.188,9.363Z"></path><path class="cls-29" d="M33.668,1.1h16.733c2.789,0,4.814.631,6.076,1.893,1.261,1.262,1.893,3.287,1.893,6.076v3.585c0,2.206-.366,3.918-1.096,5.14-.731,1.222-1.893,2.032-3.486,2.43l4.98,8.765h-7.769l-4.582-8.366h-5.578v8.366h-7.171V1.1ZM51.198,9.069c0-1.594-.797-2.391-2.39-2.391h-7.969v8.367h7.969c1.594,0,2.39-.797,2.39-2.391v-3.585Z"></path><path class="cls-29" d="M86.258,13.451l-5.577,9.96h-5.578l-5.578-9.96v15.538h-7.171V1.1h7.57l7.968,14.741,7.968-14.741h7.57v27.889h-7.172v-15.538Z"></path><path class="cls-29" d="M123.311,21.419c0,2.789-.632,4.815-1.893,6.076-1.262,1.263-3.288,1.893-6.076,1.893h-9.961c-2.788,0-4.814-.63-6.076-1.893-1.262-1.261-1.893-3.287-1.893-6.076v-12.749c0-2.788.631-4.814,1.893-6.076,1.262-1.261,3.288-1.893,6.076-1.893h9.961c2.788,0,4.814.632,6.076,1.893,1.261,1.262,1.893,3.288,1.893,6.076v12.749ZM116.139,8.67c0-1.593-.796-2.39-2.39-2.39h-6.773c-1.594,0-2.39.797-2.39,2.39v12.749c0,1.594.796,2.391,2.39,2.391h6.773c1.594,0,2.39-.797,2.39-2.391v-12.749Z"></path><path class="cls-29" d="M145.224,1.1h7.171v20.319c0,2.789-.631,4.815-1.893,6.076-1.262,1.263-3.287,1.893-6.076,1.893h-9.163c-2.789,0-4.815-.63-6.076-1.893-1.263-1.261-1.893-3.287-1.893-6.076V1.1h7.171v20.319c0,1.594.797,2.391,2.39,2.391h5.976c1.594,0,2.391-.797,2.391-2.391V1.1Z"></path><path class="cls-29" d="M156.322,1.1h16.733c2.789,0,4.814.631,6.076,1.893,1.261,1.262,1.893,3.287,1.893,6.076v3.585c0,2.206-.366,3.918-1.096,5.14-.731,1.222-1.893,2.032-3.487,2.43l4.98,8.765h-7.769l-4.581-8.366h-5.578v8.366h-7.171V1.1ZM173.852,9.069c0-1.594-.796-2.391-2.39-2.391h-7.968v8.367h7.968c1.594,0,2.39-.797,2.39-2.391v-3.585Z"></path><path class="cls-29" d="M182.126,1.1h7.57l6.573,13.545,6.574-13.545h7.57l-10.558,20.519v7.37h-7.171v-7.37l-10.558-20.519Z"></path></g><g><path class="cls-15" d="M9.539,28.715H1.769L12.328.826h7.968l10.558,27.889h-7.769l-1.793-4.98h-9.96l-1.793,4.98ZM13.124,18.556h6.375l-3.187-9.363-3.188,9.363Z"></path><path class="cls-11" d="M33.12.826h16.733c2.789,0,4.814.631,6.076,1.893,1.261,1.262,1.893,3.287,1.893,6.076v3.585c0,2.206-.366,3.918-1.096,5.14-.731,1.222-1.893,2.032-3.486,2.43l4.98,8.765h-7.769l-4.582-8.366h-5.578v8.366h-7.171V.826ZM50.65,8.794c0-1.594-.797-2.391-2.39-2.391h-7.969v8.367h7.969c1.594,0,2.39-.797,2.39-2.391v-3.585Z"></path><path class="cls-9" d="M85.71,13.177l-5.577,9.96h-5.578l-5.578-9.96v15.538h-7.171V.826h7.57l7.968,14.741,7.968-14.741h7.57v27.889h-7.172v-15.538Z"></path><path class="cls-8" d="M122.763,21.145c0,2.789-.632,4.815-1.893,6.076-1.262,1.263-3.288,1.893-6.076,1.893h-9.961c-2.788,0-4.814-.63-6.076-1.893-1.262-1.261-1.893-3.287-1.893-6.076v-12.749c0-2.788.631-4.814,1.893-6.076,1.262-1.261,3.288-1.893,6.076-1.893h9.961c2.788,0,4.814.632,6.076,1.893,1.261,1.262,1.893,3.288,1.893,6.076v12.749ZM115.591,8.395c0-1.593-.796-2.39-2.39-2.39h-6.773c-1.594,0-2.39.797-2.39,2.39v12.749c0,1.594.796,2.391,2.39,2.391h6.773c1.594,0,2.39-.797,2.39-2.391v-12.749Z"></path><path class="cls-14" d="M144.675.826h7.171v20.319c0,2.789-.631,4.815-1.893,6.076-1.262,1.263-3.287,1.893-6.076,1.893h-9.163c-2.789,0-4.815-.63-6.076-1.893-1.263-1.261-1.893-3.287-1.893-6.076V.826h7.171v20.319c0,1.594.797,2.391,2.39,2.391h5.976c1.594,0,2.391-.797,2.391-2.391V.826Z"></path><path class="cls-10" d="M155.774.826h16.733c2.789,0,4.814.631,6.076,1.893,1.261,1.262,1.893,3.287,1.893,6.076v3.585c0,2.206-.366,3.918-1.096,5.14-.731,1.222-1.893,2.032-3.487,2.43l4.98,8.765h-7.769l-4.581-8.366h-5.578v8.366h-7.171V.826ZM173.304,8.794c0-1.594-.796-2.391-2.39-2.391h-7.968v8.367h7.968c1.594,0,2.39-.797,2.39-2.391v-3.585Z"></path><path class="cls-17" d="M181.577.826h7.57l6.573,13.545,6.574-13.545h7.57l-10.558,20.519v7.37h-7.171v-7.37L181.577.826Z"></path></g><g><path class="cls-1" d="M200.724,57.035v.011c-.054.948-7.348,1.713-8.124,1.713h-6.12v-3.426h6.12c.56,0,4.611-.291,6.777.377.086.022.172.054.248.086.097.032.194.075.28.119.075.032.151.075.205.118.42.237.657.571.614,1.002Z"></path><path class="cls-13" d="M200.304,56.292v.011c-.054.948-7.348,1.713-8.124,1.713h-5.699v-3.426h5.699c.603,0,5.193.463,7.197,1.121.086.022.172.054.248.086.097.032.194.075.28.119.075.032.151.075.205.118.118.086.194.172.194.259Z"></path></g><g><path class="cls-1" d="M207.91,48.89v.011c-.054.948-7.359,1.713-8.124,1.713h-13.306v-3.426h13.306c.539,0,4.407-.269,6.604.334.399.108.722.237.905.366.42.237.657.571.614,1.002Z"></path><path class="cls-16" d="M207.49,48.147v.011c-.054.948-7.348,1.713-8.124,1.713h-12.886v-3.426h12.886c.593,0,4.956.442,7.025,1.077.399.108.722.237.905.366.119.086.183.172.194.259Z"></path></g><g><path class="cls-1" d="M213.33,41.155v.011c-.054.948-7.348,1.713-8.124,1.713h-18.725v-3.426h18.725c.539,0,4.407-.269,6.615.334.399.108.711.237.894.366.42.237.657.571.614,1.002Z"></path><path class="cls-12" d="M212.909,40.411v.011c-.054.948-7.348,1.713-8.124,1.713h-18.305v-3.426h18.305c.593,0,4.967.442,7.035,1.077.399.108.711.237.894.366.118.086.194.172.194.259Z"></path></g><path class="cls-1" d="M29.504,58.759h-8.221c-.776,0-8.07-.765-8.124-1.713v-.011c-.022-.172.011-.323.086-.463.086-.215.269-.399.528-.539.054-.043.129-.086.205-.118.086-.043.183-.086.28-.119.075-.032.162-.065.248-.086,2.166-.668,6.217-.377,6.777-1.121h7.089l.927,3.426.205.743Z"></path><path class="cls-18" d="M29.299,58.016h-8.145c-.7,0-6.691-.625-7.908-1.444-.14-.086-.215-.172-.215-.269v-.011c0-.086.075-.172.194-.259.054-.043.129-.086.205-.118.086-.043.183-.086.28-.119.075-.032.162-.065.248-.086,2.004-.657,6.594-1.121,7.197-1.121h7.219l.927,3.426Z"></path><path class="cls-1" d="M27.09,49.871l.194.743h-13.187c-.765,0-8.07-.765-8.124-1.713v-.011c-.022-.172.011-.323.086-.463.086-.215.269-.399.528-.539.183-.129.506-.259.905-.366,2.198-.603,6.066-.334,6.604-1.077h12.056l.937,3.426Z"></path><path class="cls-3" d="M27.09,49.871h-13.123c-.7,0-6.691-.625-7.908-1.444-.129-.086-.205-.172-.215-.269v-.011c.011-.086.075-.172.194-.259.183-.129.506-.259.905-.366,2.069-.636,6.432-1.077,7.025-1.077h12.185l.937,3.426Z"></path><path class="cls-1" d="M24.99,42.135l.194.743H8.678c-.776,0-8.07-.765-8.124-1.713v-.011c-.022-.172.011-.323.086-.463.086-.215.269-.399.528-.539.183-.129.496-.259.894-.366,2.209-.603,6.077-.334,6.615-1.077h15.374l.937,3.426Z"></path><path class="cls-19" d="M24.052,38.709l.937,3.426H8.548c-.7,0-6.691-.625-7.908-1.444-.14-.086-.215-.172-.215-.269v-.011c0-.086.075-.172.194-.259.183-.129.496-.259.894-.366,2.069-.636,6.443-1.077,7.035-1.077h15.504Z"></path></g><g><path class="cls-20" d="M37.673,80.625c.485.112.97.298,1.456.559.485.261.985.529,1.502.802.516.273,1.047.517,1.595.728.547.212,1.125.317,1.735.317.236,0,.485-.022.746-.065s.528-.121.802-.233c-.1.896-.314,1.607-.644,2.136s-.805.793-1.427.793c-.398,0-.802-.106-1.212-.317-.411-.212-.827-.473-1.25-.783-.423-.311-.858-.651-1.306-1.017-.448-.367-.908-.706-1.38-1.017-.473-.311-.964-.572-1.474-.783-.51-.212-1.033-.317-1.567-.317h-.214c-.069,0-.14.006-.215.018l2.778-12.93c-.821.336-1.462.846-1.922,1.53-.461.685-.691,1.524-.691,2.52,0,.435.034.736.103.904.068.167.122.295.158.382-.617,0-1.101-.127-1.452-.382-.351-.255-.526-.7-.526-1.334,0-.659.193-1.288.581-1.885.387-.597.892-1.122,1.512-1.576s1.319-.815,2.097-1.082c.777-.267,1.551-.401,2.323-.401.137,0,.267.003.392.009.124.007.249.016.373.028l-2.873,13.397Z"></path><path class="cls-20" d="M43.604,77.975c0,.635.112,1.055.336,1.259.224.205.56.308,1.008.308.373,0,.709-.05,1.008-.149s.578-.233.84-.401c.261-.167.509-.367.746-.597.236-.23.473-.476.709-.737h.634c-.261.435-.56.858-.896,1.269s-.716.778-1.138,1.101c-.423.324-.889.585-1.399.783-.51.199-1.076.298-1.698.298-.888,0-1.599-.23-2.131-.69-.532-.461-.798-1.22-.798-2.276,0-.36.037-.771.112-1.232.075-.46.19-.933.345-1.417.156-.485.364-.961.625-1.428s.579-.887.952-1.259.808-.672,1.306-.896c.497-.223,1.063-.336,1.698-.336.41,0,.749.05,1.017.149.267.1.479.234.634.401.155.168.261.358.317.57.056.211.084.435.084.672,0,.522-.118,1.013-.353,1.473-.236.461-.552.862-.948,1.203-.396.342-.852.616-1.366.821-.514.205-1.049.326-1.607.364-.012.136-.022.267-.028.392-.007.124-.009.242-.009.354ZM46.478,73.344c0-.236-.035-.421-.103-.557-.069-.136-.19-.204-.364-.204-.237,0-.466.112-.69.335-.224.222-.436.51-.634.863-.199.353-.377.752-.532,1.198-.156.446-.283.897-.383,1.355.361-.025.706-.124,1.036-.297s.619-.395.868-.668.445-.585.588-.938c.142-.353.214-.715.214-1.086Z"></path><path class="cls-20" d="M57.187,71.669l-1.847,8.657c.572-.199,1.042-.491,1.409-.877.367-.385.681-.982.942-1.791h.783c-.186.623-.407,1.138-.662,1.549s-.532.746-.83,1.008-.604.464-.914.606-.609.252-.896.326l-.28,1.343c-.137.672-.333,1.212-.588,1.623s-.535.73-.84.961c-.305.23-.625.385-.961.466-.336.08-.659.121-.97.121-.572,0-1.063-.149-1.474-.448-.411-.299-.616-.753-.616-1.362,0-.385.093-.728.28-1.026.186-.299.426-.56.718-.784.292-.223.619-.413.98-.569.36-.156.715-.29,1.063-.401l.354-1.586c-.273.336-.6.628-.979.877-.38.249-.843.373-1.39.373-.324,0-.632-.053-.923-.159-.292-.105-.557-.276-.793-.513-.237-.237-.423-.544-.56-.923-.137-.379-.205-.849-.205-1.409,0-.398.044-.824.131-1.278.087-.454.218-.911.392-1.371s.392-.902.653-1.325c.262-.423.572-.797.933-1.12.361-.323.762-.581,1.203-.774s.936-.29,1.484-.29c.149,0,.308.009.476.028s.323.062.466.131c.143.068.267.165.373.29.105.124.177.298.215.522l.186-.877h2.687ZM50.47,83.591c0,.137.053.273.159.411.105.136.264.205.475.205.199,0,.398-.137.597-.411s.361-.691.485-1.25l.112-.541c-.236.087-.466.184-.69.29-.224.105-.42.223-.588.354s-.302.273-.401.43c-.1.155-.149.326-.149.513ZM53.362,72.732c-.398,0-.759.171-1.082.513-.324.342-.597.756-.821,1.241-.224.484-.398,1.001-.523,1.548-.124.548-.186,1.027-.186,1.437,0,.36.034.638.103.83.068.193.149.336.243.43.093.094.193.149.299.167.105.019.202.028.289.028.273,0,.581-.136.923-.411.342-.273.575-.684.7-1.231l.821-3.862c-.013-.113-.072-.255-.177-.43-.106-.174-.302-.261-.588-.261Z"></path><path class="cls-20" d="M60.228,77.975c0,.635.112,1.055.336,1.259.224.205.56.308,1.008.308.373,0,.709-.05,1.007-.149.299-.099.578-.233.84-.401.261-.167.509-.367.746-.597s.473-.476.71-.737h.634c-.261.435-.559.858-.895,1.269s-.716.778-1.138,1.101c-.423.324-.889.585-1.399.783-.51.199-1.076.298-1.698.298-.888,0-1.599-.23-2.131-.69-.532-.461-.798-1.22-.798-2.276,0-.36.037-.771.112-1.232.075-.46.19-.933.345-1.417.156-.485.364-.961.625-1.428s.579-.887.952-1.259.808-.672,1.306-.896c.497-.223,1.063-.336,1.698-.336.41,0,.748.05,1.016.149.268.1.479.234.635.401.155.168.261.358.317.57.056.211.084.435.084.672,0,.522-.118,1.013-.353,1.473-.236.461-.552.862-.948,1.203-.396.342-.852.616-1.365.821s-1.049.326-1.607.364c-.012.136-.022.267-.028.392-.007.124-.009.242-.009.354ZM63.1,73.344c0-.236-.034-.421-.102-.557-.069-.136-.19-.204-.364-.204-.237,0-.466.112-.69.335-.224.222-.436.51-.634.863-.199.353-.377.752-.532,1.198-.156.446-.283.897-.383,1.355.361-.025.706-.124,1.036-.297s.618-.395.867-.668.445-.585.588-.938c.142-.353.214-.715.214-1.086Z"></path><path class="cls-20" d="M70.228,74.243c0-.634-.224-.951-.672-.951-.336,0-.628.167-.877.503s-.442.74-.578,1.213l-1.269,5.989h-2.687l1.977-9.329h2.687l-.205.97c.398-.448.79-.733,1.176-.858.385-.124.721-.186,1.007-.186.597,0,1.092.166,1.484.495s.588.868.588,1.613c0,.374-.046.787-.14,1.241-.093.454-.196.902-.307,1.343s-.215.858-.307,1.25c-.094.392-.14.718-.14.979,0,.237.053.427.158.57.106.143.302.214.588.214.199,0,.376-.04.532-.121.155-.08.291-.192.41-.336.118-.143.227-.314.327-.513.099-.199.199-.423.298-.672h.783c-.261.771-.541,1.384-.839,1.838-.299.454-.604.799-.914,1.035-.311.237-.613.392-.905.466s-.563.112-.812.112c-.41,0-.755-.059-1.035-.177s-.507-.276-.681-.476c-.174-.199-.298-.426-.373-.681-.075-.255-.113-.513-.113-.774,0-.311.044-.681.131-1.11.087-.43.184-.862.29-1.297s.202-.861.29-1.278c.087-.416.131-.774.131-1.073Z"></path><path class="cls-20" d="M84.034,67.937l-2.146,10.075c-.05.211-.075.411-.075.597,0,.261.062.442.186.541s.317.149.578.149c.361,0,.669-.155.924-.466.255-.31.45-.702.588-1.175h.783c-.261.759-.557,1.36-.887,1.8-.329.442-.665.778-1.008,1.008-.342.23-.675.377-.998.438-.324.062-.609.094-.858.094-.51,0-.923-.137-1.24-.411s-.513-.677-.588-1.213c-.137.212-.299.423-.485.635s-.395.398-.625.559c-.23.162-.482.292-.755.393-.274.099-.579.149-.915.149-.324,0-.631-.053-.923-.158-.292-.106-.556-.277-.793-.514-.237-.236-.423-.544-.559-.923-.137-.379-.205-.849-.205-1.409,0-.422.044-.876.131-1.361.086-.485.218-.971.392-1.455.174-.485.392-.952.653-1.399.261-.448.572-.843.933-1.185.36-.342.762-.615,1.203-.82.441-.205.936-.308,1.484-.308.149,0,.307.009.476.028.167.019.326.062.475.131.149.068.277.167.383.299.105.131.17.307.196.532l.914-4.255,2.762-.373ZM79.426,72.732c-.398,0-.759.184-1.082.551s-.597.815-.821,1.343c-.223.529-.398,1.088-.522,1.678-.124.591-.186,1.104-.186,1.539,0,.361.034.638.102.831s.149.336.243.429c.093.094.192.149.298.168s.202.027.29.027c.136,0,.283-.034.438-.102.156-.068.308-.171.457-.307.149-.137.28-.308.393-.514.112-.205.199-.445.261-.718l.895-4.198c0-.112-.053-.261-.158-.448-.106-.186-.308-.28-.606-.28Z"></path><path class="cls-20" d="M89.537,71.091c.05,1.206.1,2.183.149,2.929.05.746.094,1.352.131,1.818.038.466.068.847.094,1.138.025.292.037.594.037.905,0,.609-.121,1.119-.363,1.53s-.551.744-.923.998c-.374.255-.778.435-1.213.541-.435.105-.846.158-1.231.158-.473,0-.881-.071-1.222-.214-.342-.143-.625-.327-.849-.551s-.389-.479-.495-.765c-.105-.286-.159-.571-.159-.858,0-.435.1-.802.299-1.1.199-.299.43-.51.691-.635.522-.933.963-1.856,1.325-2.77.36-.915.684-1.832.97-2.752l2.761-.373ZM85.806,77.658c0,.224-.075.432-.224.625s-.348.289-.597.289c-.099,0-.196-.015-.29-.046-.093-.031-.165-.097-.214-.196,0,.435.086.762.261.979.174.219.466.326.877.326.199,0,.397-.027.597-.083.199-.056.373-.152.522-.29.149-.136.271-.317.363-.541.094-.223.14-.498.14-.821,0-.236-.009-.466-.027-.69-.019-.224-.044-.491-.075-.802-.031-.311-.069-.696-.113-1.157-.044-.46-.09-1.051-.14-1.772-.186.609-.407,1.201-.662,1.772-.255.572-.537,1.157-.849,1.754.124.062.227.147.308.252.08.106.121.239.121.401Z"></path><path class="cls-20" d="M100.227,71.575c1.568,0,2.363.977,2.389,2.929.049.013.117.019.205.019.211,0,.444-.031.699-.093.255-.062.51-.147.765-.253.255-.105.503-.226.746-.363.243-.137.464-.273.662-.411l.168.503c-.361.386-.831.712-1.409.98s-1.203.457-1.875.569c-.075.871-.242,1.655-.503,2.351s-.591,1.291-.989,1.782c-.398.492-.852.868-1.362,1.129s-1.051.392-1.624.392c-.435,0-.836-.053-1.203-.158-.367-.106-.68-.277-.941-.514-.262-.236-.466-.54-.616-.914-.149-.373-.224-.827-.224-1.361,0-.361.038-.771.112-1.232.075-.46.197-.936.364-1.428.168-.491.382-.97.643-1.436s.582-.887.961-1.259.817-.672,1.315-.896c.498-.223,1.07-.336,1.716-.336ZM98.847,79.356c.224,0,.451-.097.681-.29s.441-.46.634-.802c.193-.342.364-.749.514-1.222.149-.472.261-.982.336-1.53-.2-.049-.333-.146-.401-.289-.069-.143-.103-.308-.103-.495,0-.261.053-.476.159-.643.105-.168.245-.283.42-.345-.026-.385-.091-.656-.196-.812-.106-.155-.277-.233-.514-.233-.336,0-.653.184-.952.55-.298.367-.559.816-.783,1.343-.223.529-.404,1.089-.541,1.679-.136.591-.205,1.116-.205,1.576,0,.311.016.563.047.756.03.193.083.345.158.457s.174.19.299.234c.124.044.273.065.448.065Z"></path><path class="cls-20" d="M108.941,74.243c0-.634-.224-.951-.672-.951-.336,0-.628.167-.877.503s-.442.74-.578,1.213l-1.269,5.989h-2.687l1.977-9.329h2.687l-.205.97c.398-.448.79-.733,1.175-.858.386-.124.722-.186,1.008-.186.597,0,1.092.166,1.484.495s.588.868.588,1.613c0,.374-.046.787-.14,1.241-.093.454-.196.902-.307,1.343s-.215.858-.308,1.25c-.093.392-.139.718-.139.979,0,.237.052.427.158.57s.302.214.588.214c.299,0,.504-.037.616-.112-.087.672-.326,1.16-.718,1.465s-.836.457-1.334.457c-.361,0-.662-.059-.904-.177-.243-.118-.436-.276-.579-.476-.143-.199-.246-.426-.307-.681-.062-.255-.094-.513-.094-.774,0-.311.044-.681.131-1.11.087-.43.184-.862.29-1.297.105-.435.202-.861.29-1.278.086-.416.131-.774.131-1.073Z"></path><path class="cls-20" d="M121.852,68.721l-.634,2.948h1.119l-.149.746h-1.119l-1.194,5.597c-.05.211-.075.411-.075.597,0,.261.062.442.186.541.125.099.318.149.579.149.36,0,.696-.155,1.008-.466s.535-.702.671-1.175h.784c-.261.759-.567,1.365-.915,1.819s-.702.802-1.063,1.045c-.36.242-.711.401-1.054.476s-.638.112-.886.112c-.56,0-1.033-.177-1.418-.532-.386-.354-.579-.923-.579-1.707,0-.336.05-.74.149-1.213l1.119-5.242h-.615l.149-.746h.616l.56-2.574,2.761-.374Z"></path><path class="cls-20" d="M127.617,74.243c0-.634-.224-.951-.672-.951-.336,0-.628.167-.877.503s-.442.74-.578,1.213l-1.269,5.989h-2.687l2.705-12.687,2.762-.373-1.008,4.701c.398-.448.79-.733,1.175-.858.386-.124.722-.186,1.008-.186.597,0,1.092.166,1.484.495s.588.868.588,1.613c0,.374-.046.787-.14,1.241-.093.454-.196.902-.307,1.343s-.215.858-.308,1.25c-.093.392-.139.718-.139.979,0,.237.052.427.158.57s.302.214.588.214c.2,0,.377-.04.532-.121.156-.08.292-.192.411-.336.118-.143.227-.314.326-.513s.199-.423.299-.672h.783c-.261.771-.541,1.384-.839,1.838-.299.454-.604.799-.915,1.035-.31.237-.612.392-.904.466s-.563.112-.812.112c-.411,0-.755-.059-1.035-.177s-.507-.276-.681-.476c-.174-.199-.299-.426-.373-.681-.075-.255-.113-.513-.113-.774,0-.311.044-.681.131-1.11.087-.43.184-.862.29-1.297.105-.435.202-.861.29-1.278.086-.416.131-.774.131-1.073Z"></path><path class="cls-20" d="M134.221,77.229c-.012.099-.022.196-.028.289-.006.094-.009.19-.009.29,0,.186.016.37.046.551.031.18.09.344.177.494.086.149.203.268.352.355s.341.131.575.131c.359,0,.739-.099,1.141-.299.402-.199.752-.429,1.048-.69-.099.535-.252.979-.457,1.334-.205.354-.45.638-.737.849-.286.212-.604.36-.951.448-.349.087-.71.131-1.082.131-.871,0-1.571-.23-2.099-.69-.529-.461-.793-1.22-.793-2.276,0-.36.038-.771.112-1.232.075-.46.19-.933.345-1.417.156-.485.364-.961.625-1.428s.578-.887.952-1.259c.373-.373.808-.672,1.306-.896.498-.223,1.063-.336,1.698-.336.41,0,.748.05,1.016.149.268.1.479.234.635.401.155.168.261.358.317.57.056.211.084.435.084.672,0,.535-.118,1.029-.353,1.483-.236.454-.552.852-.948,1.194-.396.342-.852.616-1.365.821s-1.049.326-1.607.364ZM137.057,73.344c0-.236-.034-.421-.102-.557-.069-.136-.19-.204-.364-.204-.237,0-.466.114-.69.343-.224.229-.436.523-.635.882-.199.36-.379.762-.541,1.207s-.292.885-.392,1.318c.36-.012.706-.105,1.036-.278.329-.173.619-.396.868-.669.248-.272.448-.585.597-.938.149-.353.223-.721.223-1.104Z"></path><path class="cls-20" d="M150.771,68.759l-.914,4.31h.149c.386,0,.74-.102,1.063-.307s.604-.466.84-.784c.236-.317.42-.672.551-1.063s.196-.774.196-1.147c0-.249-.035-.488-.103-.719-.069-.23-.19-.431-.365-.606-.174-.174-.414-.314-.72-.42-.306-.105-.695-.158-1.169-.158-.648,0-1.259.103-1.833.307-.574.206-1.076.504-1.506.896s-.773.868-1.029,1.428c-.255.559-.383,1.194-.383,1.903,0,.224.013.408.04.551.027.143.054.261.08.354.026.094.057.168.09.224s.057.103.07.14c-.622,0-1.11-.128-1.465-.382-.355-.255-.532-.7-.532-1.334,0-.647.186-1.266.56-1.856.373-.591.873-1.116,1.501-1.577.628-.46,1.346-.827,2.155-1.1.808-.273,1.642-.411,2.5-.411.672,0,1.262.084,1.773.252.51.168.936.392,1.277.672.342.28.598.601.765.961s.252.734.252,1.119c0,.56-.174,1.135-.522,1.726-.348.591-.852,1.073-1.511,1.446.51.137.854.371,1.035.7s.271.712.271,1.148c0,.385-.046.796-.14,1.231-.093.435-.199.862-.317,1.278-.118.417-.224.818-.317,1.203-.094.386-.14.715-.14.989,0,.311.065.578.196.802s.307.379.532.466c-.398.112-.749.193-1.054.242-.306.05-.57.075-.793.075-.299,0-.545-.037-.737-.112-.193-.075-.342-.171-.448-.29-.105-.118-.177-.252-.214-.401-.038-.149-.057-.298-.057-.448,0-.31.053-.675.159-1.092.106-.416.218-.849.336-1.296s.23-.889.336-1.325.159-.834.159-1.194c0-.374-.081-.678-.244-.915-.162-.236-.448-.354-.861-.354-.099,0-.2.006-.299.018-.1.013-.212.031-.337.057l-1.498,7.033h-2.695l2.546-11.866,2.771-.373Z"></path><path class="cls-20" d="M160.061,71.575c1.568,0,2.363.977,2.389,2.929.049.013.117.019.205.019.211,0,.444-.031.699-.093.255-.062.51-.147.765-.253.255-.105.503-.226.746-.363.243-.137.464-.273.662-.411l.168.503c-.361.386-.831.712-1.409.98s-1.203.457-1.875.569c-.075.871-.242,1.655-.503,2.351s-.591,1.291-.989,1.782c-.398.492-.852.868-1.362,1.129s-1.051.392-1.624.392c-.435,0-.836-.053-1.203-.158-.367-.106-.68-.277-.941-.514-.262-.236-.466-.54-.616-.914-.149-.373-.224-.827-.224-1.361,0-.361.038-.771.112-1.232.075-.46.197-.936.364-1.428.168-.491.382-.97.643-1.436s.582-.887.961-1.259.817-.672,1.315-.896c.498-.223,1.07-.336,1.716-.336ZM158.681,79.356c.224,0,.451-.097.681-.29s.441-.46.634-.802c.193-.342.364-.749.514-1.222.149-.472.261-.982.336-1.53-.2-.049-.333-.146-.401-.289-.069-.143-.103-.308-.103-.495,0-.261.053-.476.159-.643.105-.168.245-.283.42-.345-.026-.385-.091-.656-.196-.812-.106-.155-.277-.233-.514-.233-.336,0-.653.184-.952.55-.298.367-.559.816-.783,1.343-.223.529-.404,1.089-.541,1.679-.136.591-.205,1.116-.205,1.576,0,.311.016.563.047.756.03.193.083.345.158.457s.174.19.299.234c.124.044.273.065.448.065Z"></path><path class="cls-20" d="M172.376,71.669l-1.362,6.344c-.05.211-.075.411-.075.597,0,.261.062.442.186.541.125.099.318.149.579.149.36,0,.668-.155.923-.466.255-.31.45-.702.588-1.175h.783c-.261.759-.556,1.36-.886,1.8-.33.442-.666.778-1.008,1.008-.342.23-.676.377-.998.438-.324.062-.61.094-.859.094-.51,0-.923-.137-1.24-.411s-.513-.677-.588-1.213c-.137.212-.299.423-.485.635s-.395.398-.624.559c-.231.162-.483.292-.756.393-.273.099-.578.149-.914.149-.324,0-.632-.053-.923-.158-.293-.106-.557-.277-.794-.514s-.423-.544-.559-.923c-.137-.379-.205-.849-.205-1.409,0-.422.044-.876.131-1.361s.218-.971.392-1.455c.174-.485.392-.952.653-1.399.261-.448.572-.843.933-1.185.36-.342.762-.615,1.203-.82s.936-.308,1.484-.308c.149,0,.307.009.476.028.167.019.323.062.466.131.143.068.267.167.373.299.106.131.178.301.215.513l.186-.877h2.706ZM168.551,72.732c-.398,0-.759.184-1.082.551s-.597.815-.82,1.343c-.224.529-.398,1.088-.523,1.678-.124.591-.186,1.104-.186,1.539,0,.361.034.638.103.831.068.193.149.336.242.429.094.094.193.149.299.168.105.019.202.027.289.027.137,0,.283-.034.439-.102.155-.068.307-.171.457-.307.149-.137.28-.308.392-.514s.199-.445.261-.718l.895-4.217c0-.049-.015-.114-.046-.196-.031-.08-.075-.158-.131-.233s-.131-.14-.223-.196c-.094-.056-.215-.084-.364-.084Z"></path><path class="cls-20" d="M180.808,78.013c-.025.099-.044.193-.056.28s-.019.174-.019.261c0,.211.057.389.168.532s.31.214.597.214c.174,0,.302-.011.382-.037.081-.025.152-.049.215-.075-.026.336-.099.623-.224.858-.124.237-.279.436-.466.597-.186.162-.398.28-.634.355-.237.075-.479.112-.728.112-.473,0-.887-.121-1.241-.363-.354-.243-.588-.638-.699-1.185-.287.397-.643.755-1.073,1.072-.43.318-.955.476-1.576.476-.324,0-.632-.053-.923-.158-.293-.106-.557-.277-.794-.514s-.423-.544-.559-.923c-.137-.379-.205-.849-.205-1.409,0-.422.044-.876.131-1.361s.218-.971.392-1.455c.174-.485.392-.952.653-1.399.261-.448.572-.843.933-1.185.36-.342.762-.615,1.203-.82s.936-.308,1.484-.308c.149,0,.307.009.476.028.167.019.323.062.466.131.143.068.267.165.373.29.106.124.178.292.215.503l.896-4.217,2.761-.373-2.146,10.075ZM176.685,79.299c.124,0,.261-.027.411-.083s.295-.149.438-.28.277-.299.401-.504c.125-.204.218-.463.28-.774l.914-4.254c-.025-.124-.087-.268-.186-.43-.099-.161-.292-.242-.578-.242-.398,0-.759.184-1.082.551s-.597.815-.82,1.343c-.224.529-.398,1.088-.523,1.678-.124.591-.186,1.104-.186,1.539,0,.361.034.638.103.831.068.193.149.336.242.429.094.094.193.149.299.168.105.019.202.027.289.027Z"></path></g></svg>