<svg xmlns="http://www.w3.org/2000/svg" xmlns:xlink="http://www.w3.org/1999/xlink" id="Layer_1" data-name="Layer 1" viewBox="0 0 196.91 73.818"><defs><style>      .cls-1, .cls-2, .cls-3, .cls-4, .cls-5, .cls-6, .cls-7, .cls-8, .cls-9, .cls-10, .cls-11, .cls-12, .cls-13, .cls-14, .cls-15, .cls-16, .cls-17, .cls-18, .cls-19, .cls-20, .cls-21, .cls-22, .cls-23 {        stroke-width: 0px;      }      .cls-1, .cls-24 {        fill: #9ea0a3;      }      .cls-2 {        fill: url(#linear-gradient);      }      .cls-3 {        fill: url(#linear-gradient-11);      }      .cls-4 {        fill: url(#linear-gradient-12);      }      .cls-5 {        fill: url(#linear-gradient-13);      }      .cls-6 {        fill: url(#linear-gradient-10);      }      .cls-7 {        fill: url(#linear-gradient-17);      }      .cls-8 {        fill: url(#linear-gradient-16);      }      .cls-9 {        fill: url(#linear-gradient-19);      }      .cls-10 {        fill: url(#linear-gradient-15);      }      .cls-11 {        fill: url(#linear-gradient-21);      }      .cls-12 {        fill: url(#linear-gradient-18);      }      .cls-13 {        fill: url(#linear-gradient-14);      }      .cls-14 {        fill: url(#linear-gradient-20);      }      .cls-15 {        fill: #f58220;      }      .cls-16 {        fill: url(#linear-gradient-4);      }      .cls-17 {        fill: url(#linear-gradient-2);      }      .cls-18 {        fill: url(#linear-gradient-3);      }      .cls-19 {        fill: url(#linear-gradient-8);      }      .cls-20 {        fill: url(#linear-gradient-9);      }      .cls-21 {        fill: url(#linear-gradient-7);      }      .cls-22 {        fill: url(#linear-gradient-5);      }      .cls-23 {        fill: url(#linear-gradient-6);      }      .cls-24, .cls-25 {        stroke: #9ea0a3;        stroke-miterlimit: 10;        stroke-width: .898px;      }      .cls-25 {        fill: none;      }    </style><linearGradient id="linear-gradient" x1="1.139" y1="13.439" x2="196.264" y2="13.439" gradientUnits="userSpaceOnUse"><stop offset="0" stop-color="#fff"></stop><stop offset=".12" stop-color="#e1e2e1"></stop><stop offset=".32" stop-color="#fff"></stop><stop offset=".58" stop-color="#fff"></stop><stop offset="1" stop-color="#c6c8c9"></stop></linearGradient><linearGradient id="linear-gradient-2" x1="1.393" x2="196.518" xlink:href="#linear-gradient"></linearGradient><linearGradient id="linear-gradient-3" x1="1.393" x2="196.518" xlink:href="#linear-gradient"></linearGradient><linearGradient id="linear-gradient-4" x1="1.393" y1="13.438" x2="196.518" y2="13.438" xlink:href="#linear-gradient"></linearGradient><linearGradient id="linear-gradient-5" x1="1.392" y1="13.623" x2="196.517" y2="13.623" xlink:href="#linear-gradient"></linearGradient><linearGradient id="linear-gradient-6" x1=".601" x2="195.726" xlink:href="#linear-gradient"></linearGradient><linearGradient id="linear-gradient-7" x1=".884" x2="196.009" xlink:href="#linear-gradient"></linearGradient><linearGradient id="linear-gradient-8" x1="1.22" y1="13.31" x2="196.381" y2="13.31" xlink:href="#linear-gradient"></linearGradient><linearGradient id="linear-gradient-9" x1="1.472" y1="13.31" x2="196.621" y2="13.31" xlink:href="#linear-gradient"></linearGradient><linearGradient id="linear-gradient-10" x1="1.489" y1="13.31" x2="196.587" y2="13.31" xlink:href="#linear-gradient"></linearGradient><linearGradient id="linear-gradient-11" x1="1.47" y1="13.31" x2="196.617" y2="13.31" xlink:href="#linear-gradient"></linearGradient><linearGradient id="linear-gradient-12" x1="1.458" y1="13.495" x2="196.61" y2="13.495" xlink:href="#linear-gradient"></linearGradient><linearGradient id="linear-gradient-13" x1=".732" y1="13.31" x2="195.801" y2="13.31" xlink:href="#linear-gradient"></linearGradient><linearGradient id="linear-gradient-14" x1="1.011" y1="13.31" x2="196.094" y2="13.31" xlink:href="#linear-gradient"></linearGradient><linearGradient id="linear-gradient-15" x1="22.066" y1="42.725" x2="173.507" y2="42.725" xlink:href="#linear-gradient"></linearGradient><linearGradient id="linear-gradient-16" x1="181.333" y1="57.114" x2="181.333" y2="46.483" gradientUnits="userSpaceOnUse"><stop offset="0" stop-color="#fff"></stop><stop offset=".12" stop-color="#e1e2e1"></stop><stop offset=".32" stop-color="#fff"></stop><stop offset=".79" stop-color="#fff"></stop><stop offset="1" stop-color="#c6c8c9"></stop></linearGradient><linearGradient id="linear-gradient-17" x1="184.058" y1="51.052" x2="184.058" y2="40.421" gradientUnits="userSpaceOnUse"><stop offset="0" stop-color="#fff"></stop><stop offset=".12" stop-color="#e1e2e1"></stop><stop offset=".32" stop-color="#fff"></stop><stop offset=".797" stop-color="#fff"></stop><stop offset="1" stop-color="#c6c8c9"></stop></linearGradient><linearGradient id="linear-gradient-18" x1="186.113" y1="44.612" x2="186.113" y2="33.982" gradientUnits="userSpaceOnUse"><stop offset="0" stop-color="#fff"></stop><stop offset=".12" stop-color="#e1e2e1"></stop><stop offset=".32" stop-color="#fff"></stop><stop offset=".752" stop-color="#fff"></stop><stop offset=".951" stop-color="#c6c8c9"></stop></linearGradient><linearGradient id="linear-gradient-19" x1="14.887" y1="46.11" x2="14.887" y2="58.233" gradientUnits="userSpaceOnUse"><stop offset="0" stop-color="#fff"></stop><stop offset=".12" stop-color="#e1e2e1"></stop><stop offset=".205" stop-color="#fff"></stop><stop offset=".58" stop-color="#fff"></stop><stop offset="1" stop-color="#c6c8c9"></stop></linearGradient><linearGradient id="linear-gradient-20" x1="12.162" y1="40.019" x2="12.162" y2="47.877" gradientUnits="userSpaceOnUse"><stop offset="0" stop-color="#fff"></stop><stop offset=".162" stop-color="#e1e2e1"></stop><stop offset=".32" stop-color="#fff"></stop><stop offset=".58" stop-color="#fff"></stop><stop offset="1" stop-color="#c6c8c9"></stop></linearGradient><linearGradient id="linear-gradient-21" x1="10.107" y1="39.652" x2="10.107" y2="34.583" xlink:href="#linear-gradient"></linearGradient></defs><g><path class="cls-24" d="M9.596,26.636H2.385L12.185.75h7.396l9.799,25.885h-7.211l-1.664-4.622h-9.245l-1.664,4.622ZM12.924,17.206h5.917l-2.958-8.691-2.959,8.691Z"></path><path class="cls-24" d="M31.483.75h15.531c2.589,0,4.468.586,5.639,1.757,1.171,1.171,1.757,3.051,1.757,5.639v3.328c0,2.047-.339,3.637-1.017,4.771-.678,1.135-1.757,1.886-3.236,2.256l4.622,8.136h-7.211l-4.252-7.765h-5.177v7.765h-6.656V.75ZM47.754,8.146c0-1.48-.739-2.219-2.218-2.219h-7.396v7.766h7.396c1.479,0,2.218-.74,2.218-2.219v-3.328Z"></path><path class="cls-24" d="M80.295,12.214l-5.177,9.245h-5.177l-5.177-9.245v14.422h-6.656V.75h7.026l7.396,13.682,7.396-13.682h7.026v25.885h-6.657v-14.422Z"></path><path class="cls-24" d="M114.686,19.609c0,2.589-.586,4.469-1.757,5.639-1.171,1.172-3.051,1.757-5.639,1.757h-9.246c-2.588,0-4.468-.585-5.639-1.757-1.171-1.17-1.757-3.051-1.757-5.639V7.776c0-2.588.586-4.468,1.757-5.639,1.171-1.17,3.051-1.757,5.639-1.757h9.246c2.588,0,4.468.586,5.639,1.757,1.17,1.171,1.757,3.051,1.757,5.639v11.834ZM108.029,7.776c0-1.479-.739-2.218-2.218-2.218h-6.287c-1.479,0-2.218.74-2.218,2.218v11.834c0,1.48.739,2.219,2.218,2.219h6.287c1.479,0,2.218-.74,2.218-2.219V7.776Z"></path><path class="cls-24" d="M135.025.75h6.656v18.859c0,2.589-.586,4.469-1.757,5.639-1.171,1.172-3.051,1.757-5.639,1.757h-8.505c-2.589,0-4.469-.585-5.639-1.757-1.172-1.17-1.757-3.051-1.757-5.639V.75h6.656v18.859c0,1.48.74,2.219,2.218,2.219h5.547c1.479,0,2.219-.74,2.219-2.219V.75Z"></path><path class="cls-24" d="M145.326.75h15.531c2.589,0,4.468.586,5.639,1.757,1.17,1.171,1.757,3.051,1.757,5.639v3.328c0,2.047-.34,3.637-1.017,4.771-.679,1.135-1.757,1.886-3.236,2.256l4.622,8.136h-7.211l-4.252-7.765h-5.177v7.765h-6.656V.75ZM161.596,8.146c0-1.48-.739-2.219-2.218-2.219h-7.396v7.766h7.396c1.479,0,2.218-.74,2.218-2.219v-3.328Z"></path><path class="cls-24" d="M169.275.75h7.026l6.101,12.572,6.102-12.572h7.026l-9.8,19.045v6.841h-6.656v-6.841L169.275.75Z"></path></g><g><path class="cls-2" d="M9.087,26.381H1.876L11.676.496h7.396l9.799,25.885h-7.211l-1.664-4.622h-9.245l-1.664,4.622ZM12.415,16.952h5.917l-2.958-8.691-2.959,8.691Z"></path><path class="cls-17" d="M30.974.496h15.531c2.589,0,4.468.586,5.639,1.757,1.171,1.171,1.757,3.051,1.757,5.639v3.328c0,2.047-.339,3.637-1.017,4.771-.678,1.135-1.757,1.886-3.236,2.256l4.622,8.136h-7.211l-4.252-7.765h-5.177v7.765h-6.656V.496ZM47.245,7.892c0-1.48-.739-2.219-2.218-2.219h-7.396v7.766h7.396c1.479,0,2.218-.74,2.218-2.219v-3.328Z"></path><path class="cls-18" d="M79.786,11.959l-5.177,9.245h-5.177l-5.177-9.245v14.422h-6.656V.496h7.026l7.396,13.682L79.417.496h7.026v25.885h-6.657v-14.422Z"></path><path class="cls-16" d="M114.177,19.355c0,2.589-.586,4.469-1.757,5.639-1.171,1.172-3.051,1.757-5.639,1.757h-9.246c-2.588,0-4.468-.585-5.639-1.757-1.171-1.17-1.757-3.051-1.757-5.639V7.521c0-2.588.586-4.468,1.757-5.639,1.171-1.17,3.051-1.757,5.639-1.757h9.246c2.588,0,4.468.586,5.639,1.757,1.17,1.171,1.757,3.051,1.757,5.639v11.834ZM107.52,7.521c0-1.479-.739-2.218-2.218-2.218h-6.287c-1.479,0-2.218.74-2.218,2.218v11.834c0,1.48.739,2.219,2.218,2.219h6.287c1.479,0,2.218-.74,2.218-2.219V7.521Z"></path><path class="cls-22" d="M134.516.496h6.656v18.859c0,2.589-.586,4.469-1.757,5.639-1.171,1.172-3.051,1.757-5.639,1.757h-8.505c-2.589,0-4.469-.585-5.639-1.757-1.172-1.17-1.757-3.051-1.757-5.639V.496h6.656v18.859c0,1.48.74,2.219,2.218,2.219h5.547c1.479,0,2.219-.74,2.219-2.219V.496Z"></path><path class="cls-23" d="M144.817.496h15.531c2.589,0,4.468.586,5.639,1.757,1.17,1.171,1.757,3.051,1.757,5.639v3.328c0,2.047-.34,3.637-1.017,4.771-.679,1.135-1.757,1.886-3.236,2.256l4.622,8.136h-7.211l-4.252-7.765h-5.177v7.765h-6.656V.496ZM161.087,7.892c0-1.48-.739-2.219-2.218-2.219h-7.396v7.766h7.396c1.479,0,2.218-.74,2.218-2.219v-3.328Z"></path><path class="cls-21" d="M168.766.496h7.026l6.101,12.572,6.102-12.572h7.026l-9.8,19.045v6.841h-6.656v-6.841L168.766.496Z"></path></g><path class="cls-24" d="M19.668.62h-7.4L2.568,26.25l-.1.26h7.21l1.67-4.62h9.24l1.58,4.36.09.26h7.21L19.668.62ZM15.968,8.39l2.96,8.69h-5.92l.09-.26,2.66-7.81.21-.62Z"></path><path class="cls-24" d="M50.247,18.37c1.48-.37,2.55-1.12,3.23-2.25.68-1.14,1.02-2.73,1.02-4.77v-3.33c0-2.59-.59-4.47-1.76-5.64-.42-.42-.92-.76-1.52-1.02-.03-.02-.06-.04-.1-.05-1.06-.46-2.4-.69-4.02-.69h-15.53v25.89h6.66v-7.77h5.18l4.11,7.51.14.26h7.21l-4.62-8.14ZM45.617,13.57h-7.39v-7.77h7.39c.36,0,.68.04.95.13.85.28,1.27.97,1.27,2.09v3.33c0,1.48-.74,2.22-2.22,2.22Z"></path><path class="cls-24" d="M80.007.62l-7.39,13.69-.33-.6-7.07-13.09h-7.02v25.89h6.65v-14.42l5.04,8.99.14.25h5.18l4.66-8.33.51-.91v14.42h6.66V.62h-7.03Z"></path><path class="cls-24" d="M113.017,2.01c-.4-.4-.89-.74-1.47-.99-1.09-.52-2.48-.77-4.17-.77h-9.25c-2.58,0-4.46.59-5.64,1.76-1.17,1.17-1.75,3.05-1.75,5.64v11.83c0,2.59.58,4.47,1.75,5.64.29.29.63.55,1.02.77.03.02.06.03.1.05,1.14.63,2.64.94,4.52.94h9.25c2.59,0,4.47-.59,5.64-1.76,1.17-1.17,1.76-3.05,1.76-5.64V7.65c0-2.59-.59-4.47-1.76-5.64ZM108.117,7.65v11.83c0,1.48-.74,2.22-2.22,2.22h-6.29c-.6,0-1.08-.12-1.44-.38-.52-.35-.78-.96-.78-1.84V7.65c0-1.48.74-2.22,2.22-2.22h6.29c.36,0,.67.04.94.13.85.27,1.28.97,1.28,2.09Z"></path><path class="cls-24" d="M135.107.62v18.86c0,1.48-.74,2.22-2.22,2.22h-5.54c-.6,0-1.08-.12-1.44-.38-.52-.35-.78-.96-.78-1.84V.62h-6.66v18.86c0,2.59.59,4.47,1.76,5.64.29.29.63.55,1.01.77.03.02.07.04.11.05,1.13.63,2.64.94,4.52.94h8.5c2.59,0,4.47-.59,5.64-1.76,1.17-1.17,1.76-3.05,1.76-5.64V.62h-6.66Z"></path><path class="cls-24" d="M164.087,18.37c1.48-.37,2.56-1.12,3.24-2.25.67-1.14,1.01-2.73,1.01-4.77v-3.33c0-2.59-.58-4.47-1.75-5.64-.42-.41-.92-.76-1.52-1.02-.03-.02-.06-.04-.1-.05-1.06-.46-2.4-.69-4.02-.69h-15.54v25.89h6.66v-7.77h5.18l4.11,7.51.14.26h7.21l-4.62-8.14ZM159.467,13.57h-7.4v-7.77h7.4c.35,0,.66.04.93.13.86.27,1.29.96,1.29,2.09v3.33c0,1.48-.74,2.22-2.22,2.22Z"></path><path class="cls-24" d="M188.587.62l-6.1,12.58-.32-.66-5.78-11.92h-7.03l9.8,19.05v6.84h6.66v-6.84L195.617.62h-7.03Z"></path><path class="cls-19" d="M19.248.62l-.09-.25h-7.4L1.958,26.25h7.22l1.66-4.62h9.24l.09.26,1.58,4.36h7.21L19.248.62ZM15.458,8.13l.3.88,2.66,7.81h-5.92l2.96-8.69Z"></path><path class="cls-20" d="M49.737,18.12c1.48-.37,2.56-1.12,3.23-2.26.68-1.13,1.02-2.72,1.02-4.77v-3.33c0-2.58-.59-4.46-1.76-5.63-.29-.29-.63-.55-1.01-.77-.03-.02-.06-.04-.1-.05-1.13-.63-2.64-.94-4.53-.94h-15.53v25.88h6.66v-7.76h5.18l.14.25,4.11,7.51h7.21l-4.62-8.13ZM37.718,5.55h7.4c.61,0,1.1.13,1.45.38.51.36.76.96.76,1.83v3.33c0,1.48-.74,2.22-2.21,2.22h-7.4v-7.76Z"></path><path class="cls-6" d="M79.507.37l-7.22,13.34-.18.34-7.26-13.43-.14-.25h-7.02v25.88h6.65v-14.42l.51.91,4.67,8.34h5.18l5.17-9.25v14.42h6.66V.37h-7.02Z"></path><path class="cls-3" d="M112.507,1.75c-.28-.28-.6-.52-.96-.73-1.15-.68-2.71-1.02-4.68-1.02h-9.25c-2.58,0-4.46.58-5.63,1.75-1.18,1.18-1.76,3.06-1.76,5.64v11.84c0,2.59.58,4.47,1.76,5.64.42.42.92.76,1.52,1.02.03.02.06.03.1.05,1.06.45,2.4.68,4.01.68h9.25c2.59,0,4.47-.58,5.64-1.75,1.17-1.17,1.76-3.05,1.76-5.64V7.39c0-2.58-.59-4.46-1.76-5.64ZM96.887,19.23V7.39c0-1.47.73-2.21,2.21-2.21h6.29c.61,0,1.09.13,1.45.38.51.35.77.96.77,1.83v11.84c0,1.48-.74,2.22-2.22,2.22h-6.29c-.35,0-.66-.04-.93-.13-.86-.27-1.28-.96-1.28-2.09Z"></path><path class="cls-4" d="M134.597.37v18.86c0,1.48-.74,2.22-2.21,2.22h-5.55c-.35,0-.66-.04-.93-.13-.86-.27-1.29-.96-1.29-2.09V.37h-6.66v18.86c0,2.59.59,4.47,1.76,5.64.42.42.92.76,1.52,1.02.03.02.07.04.11.05,1.06.45,2.4.68,4.01.68h8.5c2.59,0,4.47-.58,5.64-1.75,1.18-1.17,1.76-3.05,1.76-5.64V.37h-6.66Z"></path><path class="cls-5" d="M163.577,18.12c1.48-.37,2.56-1.12,3.24-2.26.67-1.13,1.01-2.72,1.01-4.77v-3.33c0-2.58-.58-4.46-1.75-5.63-.29-.29-.63-.55-1.01-.77-.03-.02-.06-.04-.1-.05-1.13-.63-2.64-.94-4.53-.94h-15.53v25.88h6.65v-7.76h5.18l.14.25,4.11,7.51h7.21l-4.62-8.13ZM151.557,5.55h7.4c.6,0,1.08.12,1.44.38.52.34.78.95.78,1.83v3.33c0,1.48-.74,2.22-2.22,2.22h-7.4v-7.76Z"></path><path class="cls-13" d="M188.077.37l-5.91,12.17-.19.4-5.98-12.32-.12-.25h-7.02l9.8,19.04v6.84h6.65v-6.84L194.977.62l.13-.25h-7.03Z"></path><g><g><g><path class="cls-1" d="M34.178,41.052h-4.949c-1.101,0-1.651-.55-1.651-1.649v-.55c0-1.101.55-1.649,1.651-1.649h8.55v-3.851h-9.651c-1.924,0-3.323.436-4.193,1.307s-1.305,2.269-1.305,4.193v.826c0,1.924.434,3.323,1.305,4.193.87.87,2.269,1.304,4.193,1.304h6.323v2.475c0,.423-.123.756-.369,1.005-.248.246-.584.371-1.005.371-1.779,0-5.178-.139-10.201-.414v3.712c1.998.166,3.931.293,5.802.385l2.528.11c1.045.038,2.036.056,2.971.056,1.794,0,3.115-.421,3.958-1.264.844-.844,1.264-2.164,1.264-3.961v-1.374c0-1.797-.421-3.117-1.264-3.96-.844-.841-2.164-1.264-3.958-1.264ZM56.173,33.353h-16.497v3.851h5.773v15.397h4.949v-15.397h5.775v-3.851ZM60.436,33.353l-7.285,19.247h5.361l1.237-3.437h6.874l1.237,3.437h5.361l-7.285-19.247h-5.5ZM60.986,45.59l2.2-6.462,2.2,6.462h-4.399ZM74.87,37.204h2.475v11.548h-2.475v3.849h9.897v-3.849h-2.475v-11.548h2.475v-3.851h-9.897v3.851ZM98.514,44.901l-6.599-11.548h-5.225v19.247h4.949v-11.548l6.599,11.548h5.225v-19.247h-4.949v11.548ZM110.613,33.353h-4.949v19.247h14.985v-3.849h-10.035v-15.399ZM122.572,52.6h15.26v-3.849h-10.311v-3.987h8.111v-3.849h-8.111v-3.712h10.311v-3.851h-15.26v19.247ZM150.757,41.052h-4.949c-1.101,0-1.651-.55-1.651-1.649v-.55c0-1.101.55-1.649,1.651-1.649h8.55v-3.851h-9.651c-1.924,0-3.323.436-4.193,1.307-.87.87-1.304,2.269-1.304,4.193v.826c0,1.924.434,3.323,1.304,4.193.87.87,2.269,1.304,4.193,1.304h6.323v2.475c0,.423-.123.756-.369,1.005-.248.246-.584.371-1.005.371-1.779,0-5.178-.139-10.201-.414v3.712c1.998.166,3.931.293,5.802.385l2.528.11c1.045.038,2.036.056,2.971.056,1.795,0,3.115-.421,3.958-1.264.844-.844,1.264-2.164,1.264-3.961v-1.374c0-1.797-.421-3.117-1.264-3.96-.844-.841-2.164-1.264-3.958-1.264ZM172.586,42.317c-.844-.841-2.164-1.264-3.958-1.264h-4.949c-1.101,0-1.651-.55-1.651-1.649v-.55c0-1.101.55-1.649,1.651-1.649h8.55v-3.851h-9.651c-1.924,0-3.323.436-4.193,1.307s-1.305,2.269-1.305,4.193v.826c0,1.924.434,3.323,1.305,4.193.87.87,2.269,1.304,4.193,1.304h6.323v2.475c0,.423-.123.756-.369,1.005-.248.246-.584.371-1.005.371-1.779,0-5.178-.139-10.201-.414v3.712c1.998.166,3.931.293,5.802.385l2.528.11c1.045.038,2.036.056,2.971.056,1.794,0,3.115-.421,3.958-1.264.844-.844,1.264-2.164,1.264-3.961v-1.374c0-1.797-.421-3.117-1.264-3.96Z"></path><path class="cls-25" d="M34.178,41.052h-4.949c-1.101,0-1.651-.55-1.651-1.649v-.55c0-1.101.55-1.649,1.651-1.649h8.55v-3.851h-9.651c-1.924,0-3.323.436-4.193,1.307s-1.305,2.269-1.305,4.193v.826c0,1.924.434,3.323,1.305,4.193.87.87,2.269,1.304,4.193,1.304h6.323v2.475c0,.423-.123.756-.369,1.005-.248.246-.584.371-1.005.371-1.779,0-5.178-.139-10.201-.414v3.712c1.998.166,3.931.293,5.802.385l2.528.11c1.045.038,2.036.056,2.971.056,1.794,0,3.115-.421,3.958-1.264.844-.844,1.264-2.164,1.264-3.961v-1.374c0-1.797-.421-3.117-1.264-3.96-.844-.841-2.164-1.264-3.958-1.264ZM56.173,33.353h-16.497v3.851h5.773v15.397h4.949v-15.397h5.775v-3.851ZM60.436,33.353l-7.285,19.247h5.361l1.237-3.437h6.874l1.237,3.437h5.361l-7.285-19.247h-5.5ZM60.986,45.59l2.2-6.462,2.2,6.462h-4.399ZM74.87,37.204h2.475v11.548h-2.475v3.849h9.897v-3.849h-2.475v-11.548h2.475v-3.851h-9.897v3.851ZM98.514,44.901l-6.599-11.548h-5.225v19.247h4.949v-11.548l6.599,11.548h5.225v-19.247h-4.949v11.548ZM110.613,33.353h-4.949v19.247h14.985v-3.849h-10.035v-15.399ZM122.572,52.6h15.26v-3.849h-10.311v-3.987h8.111v-3.849h-8.111v-3.712h10.311v-3.851h-15.26v19.247ZM150.757,41.052h-4.949c-1.101,0-1.651-.55-1.651-1.649v-.55c0-1.101.55-1.649,1.651-1.649h8.55v-3.851h-9.651c-1.924,0-3.323.436-4.193,1.307-.87.87-1.304,2.269-1.304,4.193v.826c0,1.924.434,3.323,1.304,4.193.87.87,2.269,1.304,4.193,1.304h6.323v2.475c0,.423-.123.756-.369,1.005-.248.246-.584.371-1.005.371-1.779,0-5.178-.139-10.201-.414v3.712c1.998.166,3.931.293,5.802.385l2.528.11c1.045.038,2.036.056,2.971.056,1.795,0,3.115-.421,3.958-1.264.844-.844,1.264-2.164,1.264-3.961v-1.374c0-1.797-.421-3.117-1.264-3.96-.844-.841-2.164-1.264-3.958-1.264ZM172.586,42.317c-.844-.841-2.164-1.264-3.958-1.264h-4.949c-1.101,0-1.651-.55-1.651-1.649v-.55c0-1.101.55-1.649,1.651-1.649h8.55v-3.851h-9.651c-1.924,0-3.323.436-4.193,1.307s-1.305,2.269-1.305,4.193v.826c0,1.924.434,3.323,1.305,4.193.87.87,2.269,1.304,4.193,1.304h6.323v2.475c0,.423-.123.756-.369,1.005-.248.246-.584.371-1.005.371-1.779,0-5.178-.139-10.201-.414v3.712c1.998.166,3.931.293,5.802.385l2.528.11c1.045.038,2.036.056,2.971.056,1.794,0,3.115-.421,3.958-1.264.844-.844,1.264-2.164,1.264-3.961v-1.374c0-1.797-.421-3.117-1.264-3.96Z"></path></g><path class="cls-10" d="M33.63,40.66h-4.957c-1.102,0-1.654-.551-1.654-1.651v-.551c0-1.102.551-1.651,1.654-1.651h8.562v-3.856h-9.665c-1.927,0-3.328.437-4.199,1.309s-1.306,2.272-1.306,4.199v.827c0,1.927.435,3.328,1.306,4.199.872.872,2.272,1.306,4.199,1.306h6.333v2.478c0,.424-.123.757-.37,1.006-.249.246-.585.372-1.006.372-1.781,0-5.185-.139-10.216-.415v3.718c2.001.166,3.937.294,5.81.385l2.532.11c1.046.038,2.039.056,2.976.056,1.797,0,3.119-.421,3.964-1.266s1.266-2.167,1.266-3.966v-1.376c0-1.799-.421-3.122-1.266-3.966-.845-.843-2.167-1.266-3.964-1.266ZM55.658,32.949h-16.522v3.856h5.781v15.419h4.957v-15.419h5.784v-3.856ZM59.927,32.949l-7.296,19.276h5.369l1.239-3.442h6.884l1.239,3.442h5.369l-7.296-19.276h-5.508ZM60.478,45.204l2.203-6.472,2.203,6.472h-4.405ZM74.382,36.805h2.478v11.565h-2.478v3.854h9.911v-3.854h-2.478v-11.565h2.478v-3.856h-9.911v3.856ZM98.061,44.514l-6.608-11.565h-5.232v19.276h4.957v-11.565l6.608,11.565h5.232v-19.276h-4.957v11.565ZM110.177,32.949h-4.957v19.276h15.007v-3.854h-10.05v-15.421ZM122.154,52.225h15.282v-3.854h-10.326v-3.993h8.123v-3.854h-8.123v-3.718h10.326v-3.856h-15.282v19.276ZM150.38,40.66h-4.957c-1.103,0-1.654-.551-1.654-1.651v-.551c0-1.102.551-1.651,1.654-1.651h8.562v-3.856h-9.665c-1.927,0-3.328.437-4.199,1.309-.872.872-1.306,2.272-1.306,4.199v.827c0,1.927.435,3.328,1.306,4.199.872.872,2.272,1.306,4.199,1.306h6.333v2.478c0,.424-.123.757-.37,1.006-.249.246-.585.372-1.006.372-1.781,0-5.185-.139-10.216-.415v3.718c2.001.166,3.937.294,5.81.385l2.532.11c1.047.038,2.039.056,2.976.056,1.797,0,3.119-.421,3.964-1.266s1.266-2.167,1.266-3.966v-1.376c0-1.799-.421-3.122-1.266-3.966-.845-.843-2.167-1.266-3.964-1.266ZM172.241,41.926c-.845-.843-2.167-1.266-3.964-1.266h-4.957c-1.103,0-1.654-.551-1.654-1.651v-.551c0-1.102.551-1.651,1.654-1.651h8.562v-3.856h-9.665c-1.927,0-3.328.437-4.199,1.309-.872.872-1.306,2.272-1.306,4.199v.827c0,1.927.435,3.328,1.306,4.199.872.872,2.272,1.306,4.199,1.306h6.333v2.478c0,.424-.123.757-.37,1.006-.249.246-.585.372-1.006.372-1.781,0-5.185-.139-10.216-.415v3.718c2.001.166,3.937.294,5.81.385l2.532.11c1.047.038,2.039.056,2.976.056,1.797,0,3.119-.421,3.964-1.266s1.266-2.167,1.266-3.966v-1.376c0-1.799-.421-3.122-1.266-3.966Z"></path></g><g><g><path class="cls-1" d="M186.052,48.958v.008c-.041.719-5.573,1.299-6.161,1.299h-2.959v-2.599h2.959c.425,0,3.497-.221,5.14.286.065.016.131.041.188.065.074.025.147.057.212.09.057.024.114.057.155.09.319.18.498.433.466.76Z"></path><path class="cls-8" d="M185.733,48.394v.008c-.041.719-5.573,1.299-6.161,1.299h-2.64v-2.599h2.64c.458,0,3.939.351,5.459.85.065.016.131.041.188.065.074.025.147.057.212.09.057.024.114.057.155.09.09.065.147.131.147.196Z"></path></g><g><path class="cls-1" d="M191.503,42.78v.008c-.041.719-5.581,1.299-6.161,1.299h-8.409v-2.599h8.409c.409,0,3.342-.204,5.009.253.302.082.547.18.686.278.319.18.499.433.466.76Z"></path><path class="cls-7" d="M191.184,42.216v.008c-.041.719-5.573,1.299-6.161,1.299h-8.091v-2.599h8.091c.449,0,3.759.335,5.328.817.302.082.547.18.686.278.09.065.139.131.147.196Z"></path></g><g><path class="cls-1" d="M195.613,36.913v.008c-.041.719-5.573,1.299-6.161,1.299h-12.52v-2.599h12.52c.409,0,3.342-.204,5.017.253.302.082.539.18.678.278.319.18.498.433.466.76Z"></path><path class="cls-12" d="M195.294,36.349v.008c-.041.719-5.573,1.299-6.161,1.299h-12.201v-2.599h12.201c.449,0,3.767.335,5.336.817.302.082.539.18.678.278.09.065.147.131.147.196Z"></path></g></g><g><path class="cls-1" d="M19.496,47.103v3.162h-2.958c-.588,0-6.12-.58-6.161-1.299v-.008c-.016-.131.008-.245.065-.351.065-.163.204-.302.4-.409.041-.033.098-.065.155-.09.065-.033.139-.065.212-.09.057-.024.123-.049.188-.065,1.642-.507,4.715-.286,5.14-.85h2.958Z"></path><path class="cls-9" d="M19.496,47.103v2.599h-3.056c-.531,0-5.075-.474-5.998-1.095-.106-.065-.163-.131-.163-.204v-.008c0-.065.057-.131.147-.196.041-.033.098-.065.155-.09.065-.033.139-.065.212-.09.057-.024.123-.049.188-.065,1.52-.499,5.001-.85,5.459-.85h3.056Z"></path><path class="cls-1" d="M19.496,40.925v3.162h-8.408c-.58,0-6.121-.58-6.161-1.299v-.008c-.016-.131.008-.245.065-.351.065-.163.204-.302.4-.409.139-.098.384-.196.686-.278,1.667-.458,4.601-.253,5.009-.817h8.408Z"></path><path class="cls-14" d="M19.496,40.925v2.599h-8.507c-.531,0-5.074-.474-5.998-1.095-.098-.065-.155-.131-.163-.204v-.008c.008-.065.057-.131.147-.196.139-.098.384-.196.686-.278,1.569-.482,4.878-.817,5.328-.817h8.507Z"></path><path class="cls-1" d="M19.496,35.205v3.015H6.977c-.588,0-6.12-.58-6.161-1.299v-.008c-.016-.131.008-.245.065-.351.065-.163.204-.302.4-.409.139-.098.376-.196.678-.278,1.675-.458,4.609-.253,5.017-.817h12.478l.041.147Z"></path><path class="cls-11" d="M19.496,35.205v2.451H6.879c-.531,0-5.075-.474-5.998-1.095-.106-.065-.163-.131-.163-.204v-.008c0-.065.057-.131.147-.196.139-.098.376-.196.678-.278,1.569-.482,4.887-.817,5.336-.817h12.576l.041.147Z"></path></g></g><g><path class="cls-15" d="M27.31,70.241c-.282-.157-.423-.432-.423-.823,0-.249.062-.526.187-.831.172.191.332.324.48.401.148.077.308.114.48.114.478,0,.834-.268,1.068-.802.234-.536.352-1.128.352-1.778,0-1.214-.455-1.82-1.362-1.82-.258,0-.478.014-.66.042l-1.176,5.491h-2.064l1.95-9.117,2.121-.287-.673,3.182h.086c.363,0,.703-.117,1.018-.351.316-.233.568-.53.76-.888.191-.359.287-.719.287-1.082,0-.44-.156-.808-.466-1.105-.311-.296-.786-.445-1.426-.445-.583,0-1.152.132-1.706.395-.555.263-1.006.658-1.355,1.182-.349.527-.523,1.161-.523,1.907,0,.353.033.6.101.738.067.139.1.218.1.237-.507,0-.888-.102-1.147-.308-.258-.206-.387-.542-.387-1.01,0-.65.243-1.267.731-1.85.488-.582,1.133-1.054,1.935-1.411.803-.359,1.649-.538,2.538-.538.669,0,1.233.106,1.691.316.459.21.801.487,1.025.831s.337.721.337,1.132c0,.44-.124.866-.373,1.276-.248.411-.602.746-1.061,1.004.573.106.998.371,1.276.796.277.426.416.93.416,1.512,0,.545-.103,1.138-.308,1.778s-.545,1.192-1.018,1.656c-.473.463-1.077.695-1.813.695-.383,0-.715-.079-.997-.237Z"></path><path class="cls-15" d="M32.256,69.89c-.282-.287-.423-.717-.423-1.29,0-.238.038-.549.114-.931l.975-4.602h2.065l-1.032,4.874c-.029.143-.043.278-.043.401,0,.392.143.588.43.588.267,0,.497-.112.688-.337s.344-.532.459-.925l.975-4.602h2.064l-1.032,4.874c-.038.143-.058.297-.058.459,0,.191.046.327.136.408.091.082.242.122.452.122.267,0,.5-.114.695-.343.196-.23.352-.536.466-.918h.602c-.353,1.032-.791,1.733-1.311,2.1-.521.368-1.045.551-1.57.551-.411,0-.738-.114-.982-.343-.243-.23-.39-.569-.437-1.018-.325.526-.667.883-1.025,1.075-.358.192-.724.287-1.097.287-.458,0-.829-.143-1.111-.43Z"></path><path class="cls-15" d="M39.495,69.89c-.282-.287-.423-.717-.423-1.29,0-.238.038-.549.114-.931l.975-4.602h2.065l-1.032,4.874c-.038.143-.057.297-.057.459,0,.191.045.327.136.408.091.082.241.122.452.122.277,0,.535-.117.774-.351.238-.234.411-.538.516-.91h.602c-.353,1.032-.808,1.733-1.362,2.1-.555.368-1.104.551-1.649.551-.458,0-.829-.143-1.111-.43ZM40.778,61.963c-.22-.22-.33-.488-.33-.803s.11-.585.33-.809c.219-.224.487-.338.803-.338s.585.113.81.338.337.495.337.809-.113.583-.337.803-.495.329-.81.329-.583-.109-.803-.329Z"></path><path class="cls-15" d="M43.323,69.89c-.282-.287-.423-.717-.423-1.29,0-.238.038-.549.114-.931l1.534-7.182,2.121-.287-1.649,7.741c-.038.143-.057.297-.057.459,0,.191.045.327.136.408.091.082.241.122.452.122.277,0,.535-.117.774-.351.238-.234.411-.538.516-.91h.602c-.353,1.032-.808,1.733-1.362,2.1-.555.368-1.104.551-1.649.551-.458,0-.829-.143-1.111-.43Z"></path><path class="cls-15" d="M47.201,69.761c-.363-.372-.545-.956-.545-1.748,0-.708.141-1.45.423-2.229.281-.779.702-1.439,1.261-1.979.559-.539,1.226-.809,1.999-.809.392,0,.683.067.875.2.191.134.287.311.287.53v.058l.702-3.297,2.123-.287-1.649,7.741c-.038.143-.058.297-.058.459,0,.191.046.327.137.408.091.082.241.122.451.122.268,0,.5-.114.696-.343.196-.23.351-.536.466-.918h.602c-.583,1.71-1.544,2.566-2.882,2.566-.392,0-.709-.106-.953-.316-.243-.21-.393-.516-.451-.917-.249.382-.547.697-.896.946s-.758.372-1.226.372c-.545,0-.999-.186-1.362-.559ZM50.19,68.614c.234-.21.395-.501.48-.875v-.071l.702-3.283c-.086-.335-.282-.502-.588-.502-.382,0-.726.222-1.032.667-.306.445-.545.98-.717,1.606-.171.626-.258,1.178-.258,1.656s.07.783.208.918c.139.133.309.2.509.2.23,0,.461-.104.696-.316Z"></path><path class="cls-15" d="M54.677,69.89c-.282-.287-.423-.717-.423-1.29,0-.238.039-.549.114-.931l.975-4.602h2.065l-1.032,4.874c-.038.143-.058.297-.058.459,0,.191.046.327.137.408.09.082.241.122.451.122.278,0,.536-.117.775-.351s.411-.538.516-.91h.602c-.353,1.032-.808,1.733-1.361,2.1-.555.368-1.104.551-1.649.551-.458,0-.829-.143-1.11-.43ZM55.96,61.963c-.22-.22-.33-.488-.33-.803s.11-.585.33-.809.487-.338.802-.338.586.113.81.338.337.495.337.809-.112.583-.337.803-.495.329-.81.329-.582-.109-.802-.329Z"></path><path class="cls-15" d="M62.087,69.854c-.272-.31-.408-.695-.408-1.154,0-.201.023-.428.071-.681s.098-.499.151-.738c.052-.239.088-.392.107-.459.077-.335.149-.665.216-.989.067-.326.1-.588.1-.789,0-.487-.172-.731-.516-.731-.249,0-.469.122-.66.366-.191.244-.343.562-.458.953l-.976,4.602h-2.064l1.519-7.168h2.065l-.158.746c.478-.536,1.037-.803,1.677-.803.488,0,.875.134,1.161.402s.43.673.43,1.218c0,.278-.033.586-.1.925-.068.34-.163.752-.287,1.24-.077.297-.146.586-.208.867-.062.282-.093.505-.093.667,0,.191.043.34.129.445.086.106.234.158.445.158.287,0,.516-.102.688-.308s.345-.523.516-.953h.602c-.353,1.051-.762,1.756-1.226,2.115-.463.358-.943.537-1.44.537-.583,0-1.011-.154-1.284-.466Z"></path><path class="cls-15" d="M66.775,73.381c-.339-.292-.509-.662-.509-1.111,0-.421.106-.765.316-1.032s.482-.478.817-.631c.334-.152.783-.314,1.348-.487l.129-.602c-.497.536-1.07.802-1.72.802-.545,0-.999-.186-1.362-.559-.362-.372-.545-.956-.545-1.748,0-.708.141-1.45.423-2.229.281-.779.702-1.439,1.261-1.979.559-.539,1.226-.809,2-.809.391,0,.682.067.873.2.191.134.287.311.287.53v.029l.143-.688h2.079l-1.749,8.315c-.191.918-.528,1.552-1.01,1.907-.483.353-1.016.53-1.599.53-.449,0-.843-.146-1.182-.437ZM68.115,72.277c.153-.177.272-.461.359-.852l.172-.846c-.507.171-.899.372-1.176.601-.278.23-.416.526-.416.889,0,.114.057.222.171.322.116.101.249.151.402.151.171,0,.334-.089.487-.266ZM68.753,68.65c.224-.187.385-.452.48-.796l.731-3.469c-.077-.335-.272-.502-.588-.502-.382,0-.726.222-1.031.667-.307.445-.546.98-.717,1.606-.172.626-.259,1.178-.259,1.656s.07.783.209.918c.138.133.308.2.508.2.22,0,.442-.093.667-.279Z"></path><path class="cls-15" d="M82.172,73.452c-.416-.243-.943-.619-1.584-1.126-.478-.382-.887-.69-1.226-.925-.339-.233-.708-.432-1.104-.595-.397-.162-.801-.243-1.211-.243-.143,0-.253.004-.33.014l2.136-9.935c-.64.258-1.135.652-1.484,1.182-.349.531-.523,1.178-.523,1.943,0,.353.033.6.1.738.067.139.101.218.101.237-.517,0-.901-.107-1.155-.322-.253-.214-.38-.571-.38-1.068,0-.611.251-1.207.753-1.785.501-.578,1.144-1.047,1.928-1.405.783-.359,1.567-.538,2.35-.538.134,0,.326.01.573.029l-2.207,10.293c.267.067.542.164.823.293.282.13.625.303,1.026.523.621.335,1.151.59,1.591.767.439.177.898.266,1.376.266.43,0,.831-.077,1.205-.229-.077.697-.247,1.247-.509,1.648-.263.401-.59.602-.982.602-.43,0-.852-.122-1.269-.366Z"></path><path class="cls-15" d="M81.262,69.768c-.392-.368-.588-.943-.588-1.728,0-.659.129-1.386.388-2.178.258-.793.678-1.479,1.261-2.058.582-.578,1.324-.867,2.221-.867,1.051,0,1.577.459,1.577,1.376,0,.536-.152,1.028-.459,1.477-.306.449-.711.81-1.218,1.082s-1.047.428-1.62.466c-.019.287-.029.478-.029.573,0,.469.081.787.244.953.162.168.425.251.788.251.517,0,.958-.12,1.327-.359.367-.239.771-.601,1.211-1.089h.487c-1.06,1.768-2.375,2.652-3.942,2.652-.708,0-1.257-.183-1.649-.551ZM83.95,66.278c.32-.23.578-.521.775-.875.196-.353.293-.727.293-1.118s-.12-.588-.359-.588c-.343,0-.68.301-1.01.902-.33.602-.567,1.286-.71,2.05.355-.019.691-.143,1.011-.372Z"></path><path class="cls-15" d="M87.755,73.459c-.306-.239-.459-.582-.459-1.031,0-.546.22-.982.66-1.312.439-.329.998-.605,1.677-.823l.172-.76c-.488.526-1.061.788-1.72.788-.545,0-.999-.186-1.362-.559-.362-.372-.545-.956-.545-1.748,0-.708.141-1.45.423-2.229.281-.779.702-1.439,1.261-1.979.559-.539,1.226-.809,2-.809.391,0,.682.067.873.2.191.134.287.311.287.53v.087l.158-.746h2.065l-1.419,6.652c.459-.153.827-.382,1.104-.689.277-.306.511-.759.702-1.361h.602c-.258.85-.607,1.475-1.047,1.87-.439.397-.937.667-1.49.81l-.216,1.032c-.191.927-.521,1.565-.989,1.914s-.999.523-1.591.523c-.459,0-.841-.12-1.147-.359ZM89.045,72.37c.153-.22.272-.536.359-.946l.086-.416c-.937.343-1.405.75-1.405,1.218,0,.124.043.234.129.33s.206.143.359.143c.162,0,.32-.11.472-.33ZM89.691,68.628c.229-.2.387-.472.472-.817l.731-3.397c0-.116-.048-.232-.143-.351-.096-.12-.243-.18-.445-.18-.382,0-.726.222-1.031.667-.307.445-.546.98-.717,1.606-.172.626-.259,1.178-.259,1.656s.07.783.209.918c.138.133.308.2.508.2.22,0,.445-.1.675-.301Z"></path><path class="cls-15" d="M94.034,69.768c-.392-.368-.588-.943-.588-1.728,0-.659.129-1.386.388-2.178.258-.793.678-1.479,1.261-2.058.582-.578,1.324-.867,2.221-.867,1.051,0,1.577.459,1.577,1.376,0,.536-.152,1.028-.459,1.477-.306.449-.711.81-1.218,1.082s-1.047.428-1.62.466c-.019.287-.029.478-.029.573,0,.469.081.787.244.953.162.168.425.251.788.251.517,0,.958-.12,1.327-.359.367-.239.771-.601,1.211-1.089h.487c-1.06,1.768-2.375,2.652-3.942,2.652-.708,0-1.257-.183-1.649-.551ZM96.722,66.278c.32-.23.578-.521.775-.875.196-.353.293-.727.293-1.118s-.12-.588-.359-.588c-.343,0-.68.301-1.01.902-.33.602-.567,1.286-.71,2.05.355-.019.691-.143,1.011-.372Z"></path><path class="cls-15" d="M103.029,69.854c-.272-.31-.408-.695-.408-1.154,0-.201.023-.428.071-.681s.098-.499.151-.738c.052-.239.088-.392.107-.459.077-.335.149-.665.216-.989.067-.326.1-.588.1-.789,0-.487-.172-.731-.516-.731-.249,0-.469.122-.66.366-.191.244-.343.562-.458.953l-.976,4.602h-2.064l1.519-7.168h2.065l-.158.746c.478-.536,1.037-.803,1.677-.803.488,0,.875.134,1.161.402s.43.673.43,1.218c0,.278-.033.586-.1.925-.068.34-.163.752-.287,1.24-.077.297-.146.586-.208.867-.062.282-.093.505-.093.667,0,.191.043.34.129.445.086.106.234.158.445.158.287,0,.516-.102.688-.308s.345-.523.516-.953h.602c-.353,1.051-.762,1.756-1.226,2.115-.463.358-.943.537-1.44.537-.583,0-1.011-.154-1.284-.466Z"></path><path class="cls-15" d="M106.735,69.761c-.362-.372-.545-.956-.545-1.748,0-.708.141-1.45.423-2.229.281-.779.702-1.439,1.261-1.979.559-.539,1.226-.809,2-.809.391,0,.682.067.873.2.191.134.287.311.287.53v.058l.703-3.297,2.121-.287-1.649,7.741c-.038.143-.057.297-.057.459,0,.191.044.327.136.408.091.082.241.122.452.122.267,0,.499-.114.695-.343.196-.23.351-.536.466-.918h.602c-.582,1.71-1.544,2.566-2.882,2.566-.391,0-.709-.106-.952-.316-.244-.21-.395-.516-.452-.917-.249.382-.547.697-.896.946s-.758.372-1.226.372c-.545,0-.999-.186-1.362-.559ZM109.724,68.614c.234-.21.395-.501.48-.875v-.071l.702-3.283c-.086-.335-.281-.502-.588-.502-.382,0-.726.222-1.031.667-.307.445-.546.98-.717,1.606-.172.626-.259,1.178-.259,1.656s.07.783.209.918c.138.133.308.2.508.2.23,0,.461-.104.696-.316Z"></path><path class="cls-15" d="M114.376,70.055c-.316-.177-.55-.407-.702-.688-.153-.282-.23-.576-.23-.882,0-.316.074-.59.222-.825.149-.233.328-.403.538-.508.372-.669.698-1.346.975-2.029s.54-1.421.789-2.215l2.121-.287c.048,1.224.129,2.547.243,3.971.048.573.072.99.072,1.248,0,.582-.149,1.06-.445,1.434-.297.372-.662.64-1.097.802-.436.162-.877.243-1.326.243-.459,0-.847-.088-1.161-.264ZM115.967,68.873c.238-.211.358-.55.358-1.018,0-.287-.029-.689-.086-1.205-.096-1.089-.158-1.82-.187-2.194-.229.756-.617,1.658-1.161,2.709.22.116.33.282.33.502,0,.181-.06.345-.179.488-.12.143-.271.214-.452.214-.2,0-.33-.062-.387-.187,0,.345.069.598.208.76s.36.243.667.243c.353,0,.65-.104.889-.314Z"></path><path class="cls-15" d="M131.536,64.758c0,.335-.127.65-.38.947-.253.296-.571.507-.953.63-.162.048-.353.072-.573.072-.086.812-.327,1.527-.723,2.143-.397.617-.916,1.095-1.556,1.434s-1.357.509-2.15.509c-.908,0-1.622-.229-2.143-.688-.521-.459-.781-1.08-.781-1.864,0-.526.117-1.044.351-1.556.233-.511.553-.952.96-1.326.406-.372.852-.63,1.34-.773v-.058c-.297-.249-.507-.511-.631-.789-.123-.277-.186-.62-.186-1.031,0-.517.141-1.001.422-1.456.282-.453.665-.817,1.147-1.089s1.006-.409,1.57-.409c.65,0,1.185.187,1.606.559.42.373.63.846.63,1.419,0,.392-.1.712-.301.961-.2.248-.463.372-.788.372-.363,0-.655-.148-.875-.445.172-.104.313-.267.423-.487.109-.22.164-.455.164-.702,0-.268-.067-.478-.201-.631-.133-.152-.316-.229-.545-.229-.249,0-.488.096-.717.287s-.413.447-.552.767c-.138.32-.208.657-.208,1.01,0,.478.129.881.388,1.211.258.33.611.552,1.06.667v.058c-.449.086-.872.293-1.268.623-.397.329-.712.731-.947,1.204-.234.473-.351.953-.351,1.441,0,.497.124.883.373,1.161.248.277.592.416,1.031.416.411,0,.818-.114,1.219-.345.401-.229.746-.549,1.032-.96s.478-.875.573-1.39c-.211,0-.43.028-.66.086-.526.172-.902.426-1.132.76l-.043.014c-.104-.134-.191-.307-.258-.517-.038-.114-.057-.239-.057-.372,0-.324.114-.617.343-.875.23-.258.517-.44.86-.545.268-.077.636-.134,1.105-.172.314-.019.587-.052.817-.1.22-.067.442-.18.667-.338.224-.157.393-.312.509-.466h.028c.143.143.249.32.316.531.029.114.043.224.043.329Z"></path><path class="cls-15" d="M140.846,73.452c-.416-.243-.943-.619-1.584-1.126-.478-.382-.887-.69-1.226-.925-.339-.233-.708-.432-1.104-.595-.397-.162-.801-.243-1.211-.243-.143,0-.253.004-.33.014l2.136-9.935c-.64.258-1.135.652-1.484,1.182-.349.531-.523,1.178-.523,1.943,0,.353.033.6.1.738.067.139.101.218.101.237-.517,0-.901-.107-1.155-.322-.253-.214-.38-.571-.38-1.068,0-.611.251-1.207.753-1.785.501-.578,1.144-1.047,1.928-1.405.783-.359,1.567-.538,2.35-.538.134,0,.326.01.573.029l-2.207,10.293c.267.067.542.164.823.293.282.13.625.303,1.026.523.621.335,1.151.59,1.591.767.439.177.898.266,1.376.266.43,0,.831-.077,1.205-.229-.077.697-.247,1.247-.509,1.648-.263.401-.59.602-.982.602-.43,0-.852-.122-1.269-.366Z"></path><path class="cls-15" d="M139.936,69.768c-.392-.368-.588-.943-.588-1.728,0-.659.129-1.386.388-2.178.258-.793.678-1.479,1.261-2.058.582-.578,1.324-.867,2.221-.867,1.051,0,1.577.459,1.577,1.376,0,.536-.152,1.028-.459,1.477-.306.449-.711.81-1.218,1.082s-1.047.428-1.62.466c-.019.287-.029.478-.029.573,0,.469.081.787.244.953.162.168.425.251.788.251.517,0,.958-.12,1.327-.359.367-.239.771-.601,1.211-1.089h.487c-1.06,1.768-2.375,2.652-3.942,2.652-.708,0-1.257-.183-1.649-.551ZM142.624,66.278c.32-.23.578-.521.775-.875.196-.353.293-.727.293-1.118s-.12-.588-.359-.588c-.343,0-.68.301-1.01.902-.33.602-.567,1.286-.71,2.05.355-.019.691-.143,1.011-.372Z"></path><path class="cls-15" d="M146.429,73.459c-.306-.239-.459-.582-.459-1.031,0-.546.22-.982.66-1.312.439-.329.998-.605,1.677-.823l.172-.76c-.488.526-1.061.788-1.72.788-.545,0-.999-.186-1.362-.559-.362-.372-.545-.956-.545-1.748,0-.708.141-1.45.423-2.229.281-.779.702-1.439,1.261-1.979.559-.539,1.226-.809,2-.809.391,0,.682.067.873.2.191.134.287.311.287.53v.087l.158-.746h2.065l-1.419,6.652c.459-.153.827-.382,1.104-.689.277-.306.511-.759.702-1.361h.602c-.258.85-.607,1.475-1.047,1.87-.439.397-.937.667-1.49.81l-.216,1.032c-.191.927-.521,1.565-.989,1.914s-.999.523-1.591.523c-.459,0-.841-.12-1.147-.359ZM147.719,72.37c.153-.22.272-.536.359-.946l.086-.416c-.937.343-1.405.75-1.405,1.218,0,.124.043.234.129.33s.206.143.359.143c.162,0,.32-.11.472-.33ZM148.365,68.628c.229-.2.387-.472.472-.817l.731-3.397c0-.116-.048-.232-.143-.351-.096-.12-.243-.18-.445-.18-.382,0-.726.222-1.031.667-.307.445-.546.98-.717,1.606-.172.626-.259,1.178-.259,1.656s.07.783.209.918c.138.133.308.2.508.2.22,0,.445-.1.675-.301Z"></path><path class="cls-15" d="M152.665,69.761c-.362-.372-.545-.956-.545-1.748,0-.708.141-1.45.423-2.229.281-.779.702-1.439,1.261-1.979.559-.539,1.226-.809,2-.809.391,0,.682.067.873.2.191.134.287.311.287.53v.101l.158-.76h2.065l-1.032,4.874c-.038.143-.057.297-.057.459,0,.411.196.617.587.617.268,0,.5-.124.696-.373.196-.248.351-.573.466-.975h.602c-.353,1.032-.791,1.733-1.311,2.1-.521.368-1.045.551-1.57.551-.401,0-.723-.112-.967-.337-.244-.224-.39-.551-.438-.981-.277.391-.586.709-.925.952-.339.244-.743.366-1.211.366-.545,0-.999-.186-1.362-.559ZM155.668,68.593c.234-.224.395-.532.48-.925l.688-3.239c0-.124-.048-.247-.143-.366-.096-.12-.243-.18-.445-.18-.382,0-.726.222-1.031.667-.307.445-.546.98-.717,1.606-.172.626-.259,1.178-.259,1.656s.07.783.209.918c.138.133.308.2.508.2.239,0,.476-.112.71-.337Z"></path><path class="cls-15" d="M160.248,69.768c-.392-.368-.588-.943-.588-1.728,0-.659.132-1.386.395-2.178.262-.793.683-1.479,1.261-2.058.578-.578,1.312-.867,2.2-.867.573,0,.982.124,1.226.372.244.249.366.565.366.947,0,.335-.071.592-.214.773-.143.182-.326.272-.545.272-.163,0-.33-.057-.502-.171.114-.316.172-.598.172-.846,0-.182-.033-.326-.1-.43-.068-.106-.168-.158-.301-.158-.287,0-.573.233-.86.702-.287.468-.521,1.037-.702,1.706-.182.669-.273,1.271-.273,1.806,0,.469.081.787.244.953.162.168.425.251.788.251.517,0,.958-.12,1.327-.359.367-.239.771-.601,1.211-1.089h.487c-1.06,1.768-2.375,2.652-3.942,2.652-.708,0-1.257-.183-1.649-.551Z"></path><path class="cls-15" d="M166.406,73.381c-.339-.292-.509-.662-.509-1.111,0-.421.106-.765.316-1.032s.482-.478.817-.631c.334-.152.783-.314,1.348-.487l.143-.631c-.488.555-1.07.831-1.749.831-.459,0-.829-.143-1.111-.43-.281-.287-.422-.717-.422-1.29,0-.238.038-.549.114-.931l.975-4.602h2.065l-1.032,4.874c-.029.114-.043.234-.043.359,0,.42.143.63.43.63.268,0,.497-.112.688-.337s.345-.532.459-.925l.975-4.602h2.079l-1.749,8.315c-.191.918-.528,1.552-1.01,1.907-.483.353-1.016.53-1.599.53-.449,0-.843-.146-1.182-.437ZM167.746,72.277c.153-.177.272-.461.359-.852l.172-.846c-.507.171-.899.372-1.176.601-.278.23-.416.526-.416.889,0,.114.057.222.171.322.116.101.249.151.402.151.171,0,.334-.089.487-.266Z"></path><path class="cls-15" d="M172.721,69.962c-.22-.22-.33-.488-.33-.802s.11-.586.33-.81c.219-.224.487-.337.802-.337s.586.112.81.337.337.495.337.81-.112.582-.337.802-.495.33-.81.33-.583-.11-.802-.33Z"></path></g></svg>