<?xml version="1.0" encoding="UTF-8"?><svg id="Layer_1" xmlns="http://www.w3.org/2000/svg" xmlns:xlink="http://www.w3.org/1999/xlink" viewBox="0 0 1024 188.09"><defs><style>.cls-1{fill:#fff;}.cls-2{fill:#00a95c;}.cls-3,.cls-4,.cls-5{fill:none;}.cls-4{clip-path:url(#clippath);}.cls-5{clip-path:url(#clippath-1);}</style><clipPath id="clippath"><rect class="cls-3" y="0" width="1024" height="189.23"/></clipPath><clipPath id="clippath-1"><rect class="cls-3" y="0" width="1024" height="189.23"/></clipPath></defs><g id="FD_Reverse"><g class="cls-4"><polygon class="cls-2" points="27.3 0 58.44 21.77 21.47 21.77 0 101.24 43.52 101.24 54.26 61.46 91.82 61.46 97.66 39.78 60.09 39.78 64.98 21.69 115.19 21.69 121.03 0 27.3 0"/><g class="cls-5"><path class="cls-2" d="m139.96,78.21c0-1.46.29-3.2.85-5.23l6.19-22.96c2.13-8,6.4-12,12.8-12,4.79,0,7.18,2.25,7.18,6.77,0,1.46-.26,3.21-.78,5.23l-6.19,22.96c-2.18,8.01-6.47,12.02-12.87,12.02-4.8,0-7.19-2.26-7.19-6.78m-38.74-19.99l-1.71,6.5c-1.04,3.81-1.58,7.35-1.63,10.59-.19,17.76,14.71,26.64,44.72,26.64,35.41,0,56.45-12.41,63.15-37.23l1.7-6.5c1.09-3.91,1.63-7.52,1.63-10.82,0-17.56-14.91-26.35-44.72-26.35-35.41,0-56.46,12.39-63.14,37.17"/><path class="cls-2" d="m260.13,24.44l.72-2.68h-36.41l-21.48,79.48h36.41l12.51-46.35c3.08-11.35,9.48-17.03,19.21-17.03,5.77,0,11.42.47,16.92,1.42l4.84-17.94c-2.66-.2-7.26-.29-13.79-.29s-12.85,1.13-18.92,3.4"/><path class="cls-2" d="m381.86,30.03c-3.88-5.99-11.57-8.98-23.04-8.98-9.85,0-17.6,1.13-23.24,3.4l.71-2.68h-36.4l-21.48,79.48h36.4l13.87-51.29c2.18-8.07,6.47-12.1,12.87-12.1,4.79,0,7.18,2.27,7.18,6.79-.04,1.46-.33,3.21-.85,5.24l-13.86,51.36h36.4l13.87-51.44c2.18-7.96,6.49-11.95,12.93-11.95,4.8,0,7.19,2.24,7.19,6.73,0,1.51-.29,3.28-.85,5.3l-13.77,51.36h36.38l12.87-47.97c1.24-4.47,1.85-8.47,1.85-11.94,0-11.14-6.05-17.62-17.95-19.57-2.55-.43-5.26-.72-8.35-.72-14.36,0-25.27,3-32.71,8.98"/><path class="cls-1" d="m546.91,0h-78.81l31.05,21.76h-36.86l-21.4,79.48h78.8c18.9,0,30.88-9.42,35.94-28.28l12.05-44.69c1.04-4,1.55-7.59,1.55-10.75C569.22,5.84,561.79,0,546.91,0m-24.66,35.89l-7.95,29.52c-2.5,9.42-8.47,14.13-17.92,14.13h-6.24l15.52-57.79h6.24c7.42,0,11.12,2.92,11.12,8.76.05,1.55-.22,3.34-.78,5.38"/><path class="cls-1" d="m595.24,101.25h-36.28l21.4-79.49h36.29l-21.41,79.49Zm22.82-84.93h-36.28L586.17,0h36.28l-4.39,16.32Z"/><path class="cls-1" d="m690.67,39.28c-5.49-.94-11.1-1.41-16.87-1.41-9.69,0-16.05,5.67-19.13,17.02l-12.48,46.36h-36.27l21.4-79.49h36.29l-.72,2.69c6.05-2.26,12.34-3.4,18.86-3.4s11.1.1,13.74.29l-4.82,17.95Z"/><path class="cls-1" d="m788.24,66.83h-62.44l-1.63,6.1c-.57,2.03-.85,3.8-.85,5.32,0,4.49,2.38,6.73,7.16,6.73,6.32,0,10.38-3.32,12.18-9.96h42.24c-9.21,17.94-28.87,26.92-58.96,26.92s-44.58-8.78-44.58-26.35c0-3.26.53-6.85,1.63-10.82l1.69-6.57c6.66-24.77,27.64-37.17,62.93-37.17,29.77,0,44.65,8.72,44.65,26.15,0,3.39-.56,7.08-1.69,11.09l-2.34,8.54Zm-39.48-14.06l.78-2.82c.52-1.93.78-3.66.78-5.17.1-4.61-2.27-6.92-7.09-6.92-6.37,0-10.65,4.02-12.82,12.09l-.78,2.82h19.13Z"/><path class="cls-1" d="m897.89,72.91c-8.84,19.36-28.85,29.03-60.03,29.03s-44.53-8.76-44.58-26.28c0-3.35.54-6.98,1.63-10.88l1.69-6.57c6.66-24.78,27.65-37.17,62.93-37.17,29.71,0,44.58,8.75,44.58,26.22,0,.9-.03,1.79-.08,2.69h-42.66c.52-2.01.78-3.77.78-5.27,0-4.45-2.38-6.67-7.16-6.67-6.37,0-10.63,3.99-12.75,12l-6.16,22.96c-.57,2.02-.86,3.77-.86,5.24,0,4.51,2.39,6.77,7.17,6.77,6.37,0,10.65-4.03,12.82-12.08h42.67Z"/><polygon class="cls-1" points="962.49 43.45 946.96 101.25 910.68 101.25 926.2 43.45 908.49 43.45 914.37 21.76 932.08 21.76 937.89 0 974.18 0 968.37 21.76 986.09 21.76 971.01 35.61 962.49 43.45"/><polygon class="cls-1" points="330 179.06 340.67 135.19 349.23 135.19 338.56 179.06 330 179.06"/><path class="cls-1" d="m363.27,179.06l4.72-19.41c1.07-4.37-1.34-5.85-3.86-5.85s-5.73,1.48-6.79,5.85l-4.72,19.41h-8.01l7.81-32.1h7.83l-.73,2.96c2.64-2.22,5.87-3.33,8.83-3.33,3.2,0,5.53,1.05,6.89,2.84,1.95,2.59,1.9,5.61,1.05,9.12l-4.99,20.52h-8.02Z"/><polygon class="cls-1" points="374.25 189.23 378.85 170.31 387.67 170.31 384.71 182.45 374.25 189.23"/><path class="cls-1" d="m426.03,175.5c-2.48,2.09-6.2,3.94-10.94,3.94s-7.5-1.85-8.96-3.94c-2.16-3.03-2.02-6.66-.6-12.52,1.41-5.79,3.04-9.43,6.66-12.45,2.49-2.09,6.14-3.94,10.88-3.94s7.56,1.85,9.02,3.94c2.16,3.03,2.02,6.66.61,12.45-1.43,5.86-3.05,9.49-6.68,12.52m-1.29-20.28c-.7-.93-1.81-1.42-3.41-1.42s-2.9.49-4.04,1.42c-2.07,1.66-2.93,4.44-3.74,7.76-.81,3.33-1.31,6.16-.06,7.82.71.93,1.75,1.42,3.35,1.42s2.96-.49,4.1-1.42c2.07-1.66,2.95-4.49,3.75-7.82.81-3.32,1.3-6.1.04-7.76"/><path class="cls-1" d="m451.86,179.06l4.72-19.41c1.06-4.37-1.35-5.85-3.87-5.85s-5.72,1.48-6.79,5.85l-4.72,19.41h-8.01l7.81-32.1h7.83l-.72,2.96c2.64-2.22,5.86-3.33,8.82-3.33,3.2,0,5.54,1.05,6.89,2.84,1.96,2.59,1.9,5.61,1.05,9.12l-4.99,20.52h-8.01Z"/><path class="cls-1" d="m505.48,179.06l-2.27-3.82c-2.42,1.6-6.07,4.19-12.35,4.19-9.68,0-13.26-5.06-11.25-13.31,1.37-5.61,6.32-9.24,10.75-11.77-1.29-2.03-3.13-5.12-2.11-9.31,1.46-5.98,6.86-10.23,14.2-10.23,6.91,0,10.15,4.37,8.7,10.35-.83,3.39-3.17,5.67-6.36,7.64,0,0-2.41,1.54-3.7,2.28l5.27,8.75c1.88-1.91,3.21-4.56,4.09-7.7h7.58c-1.69,5.66-4.07,10.16-7.99,13.61l5.63,9.31h-10.18Zm-12.01-19.78c-3.1,1.84-5.31,3.57-6.07,6.71-.9,3.64,1.45,6.17,5.15,6.17,2.59,0,4.7-.8,7.17-2.59l-6.24-10.29Zm7.31-17.63c-2.41,0-4.01,1.54-4.51,3.58-.39,1.6.6,3.14,1.69,4.93.71-.37,2.15-1.23,2.15-1.23,1.66-.99,3.05-2.16,3.42-3.7.49-2.03-.49-3.58-2.76-3.58"/><path class="cls-1" d="m546.9,179.06l.68-2.78c-2.68,2.16-4.94,3.09-8.64,3.09s-6.06-.93-7.51-2.84c-1.29-1.79-1.58-4.37-.9-7.21,1.25-5.12,5.78-9.31,13.23-9.31h7.59l.39-1.6c.86-3.51-.51-5.06-4.75-5.06-3.09,0-4.69.74-6.81,2.65l-3.89-5c3.98-3.44,7.3-4.43,12.66-4.43,9,0,12.76,3.82,10.93,11.34l-5.14,21.14h-7.83Zm3.11-13.55h-6.35c-2.89,0-4.82,1.35-5.38,3.63-.54,2.22.58,3.7,3.72,3.7,2.22,0,3.68-.19,5.43-1.54,1.06-.8,1.68-2.09,2.16-4.06l.42-1.72Z"/><path class="cls-1" d="m583.2,155.71c-.93-1.23-1.81-1.91-3.78-1.91-2.47,0-5.63,1.84-6.62,5.92l-4.7,19.34h-8.01l7.81-32.09h7.83l-.75,3.08c1.99-1.85,5.46-3.45,8.91-3.45,3.14,0,5.16.8,6.84,3.01l-7.53,6.11Z"/><path class="cls-1" d="m607.86,175.5c-2.48,2.09-6.2,3.94-10.94,3.94s-7.5-1.85-8.96-3.94c-2.16-3.03-2.02-6.66-.6-12.52,1.41-5.79,3.03-9.43,6.66-12.45,2.48-2.09,6.14-3.94,10.88-3.94s7.57,1.85,9.02,3.94c2.16,3.03,2.02,6.66.62,12.45-1.42,5.86-3.05,9.49-6.68,12.52m-1.29-20.28c-.7-.93-1.81-1.42-3.42-1.42s-2.89.49-4.03,1.42c-2.07,1.66-2.94,4.44-3.74,7.76-.81,3.33-1.32,6.16-.06,7.82.71.93,1.75,1.42,3.36,1.42s2.96-.49,4.1-1.42c2.06-1.66,2.94-4.49,3.75-7.82.8-3.32,1.29-6.1.04-7.76"/><path class="cls-1" d="m633.52,179.06l.72-2.96c-2.64,2.22-5.86,3.33-8.82,3.33-3.21,0-5.55-1.05-6.89-2.84-1.96-2.59-1.9-5.6-1.05-9.12l4.99-20.51h8.01l-4.72,19.41c-1.07,4.37,1.34,5.86,3.87,5.86s5.72-1.48,6.78-5.86l4.72-19.41h8.02l-7.81,32.1h-7.83Z"/><path class="cls-1" d="m665.61,179.06l4.72-19.41c1.06-4.37-1.34-5.85-3.87-5.85s-5.73,1.48-6.79,5.85l-4.72,19.41h-8.01l7.81-32.1h7.83l-.72,2.96c2.63-2.22,5.86-3.33,8.82-3.33,3.2,0,5.53,1.05,6.89,2.84,1.95,2.59,1.9,5.61,1.05,9.12l-5,20.52h-8.01Z"/><path class="cls-1" d="m697.01,179.06l.73-3.03c-2.82,2.47-5.38,3.4-8.77,3.4-3.14,0-5.83-1.11-7.18-2.9-2.43-3.21-1.14-8.75.03-13.56,1.17-4.81,2.57-10.29,6.55-13.49,2.22-1.79,5.39-2.9,8.53-2.9s5.52.86,7.04,3.21l3.56-14.61h8.01l-10.67,43.88h-7.83Zm.48-25.26c-4.81,0-6.38,3.94-7.66,9.18-1.27,5.24-1.63,9.25,3.17,9.25s6.47-4.01,7.74-9.25c1.27-5.24,1.55-9.18-3.25-9.18"/><path class="cls-1" d="m735.26,179.43c-6.41,0-13.52-3.45-10.36-16.46,3.16-13,11.94-16.39,18.35-16.39,4.43,0,7.44,1.35,9.55,4.31l-6.74,5.42c-1.22-1.79-2.47-2.53-4.56-2.53-1.91,0-3.55.68-5.08,2.09-1.6,1.53-2.68,3.7-3.5,7.09-.82,3.39-.81,5.61.05,7.15.83,1.42,2.14,2.1,4.05,2.1,2.1,0,3.7-.74,5.8-2.53l4.12,5.36c-3.56,2.96-7.23,4.38-11.67,4.38"/><path class="cls-1" d="m771.55,175.5c-2.48,2.09-6.2,3.94-10.94,3.94s-7.5-1.85-8.96-3.94c-2.16-3.03-2.02-6.66-.6-12.52,1.41-5.79,3.03-9.43,6.66-12.45,2.48-2.09,6.13-3.94,10.88-3.94s7.56,1.85,9.02,3.94c2.16,3.03,2.02,6.66.61,12.45-1.42,5.86-3.05,9.49-6.68,12.52m-1.29-20.28c-.7-.93-1.81-1.42-3.42-1.42s-2.89.49-4.04,1.42c-2.07,1.66-2.93,4.44-3.74,7.76-.81,3.33-1.32,6.16-.06,7.82.7.93,1.75,1.42,3.36,1.42s2.95-.49,4.1-1.42c2.06-1.66,2.94-4.49,3.75-7.82.81-3.32,1.3-6.1.04-7.76"/><path class="cls-1" d="m797.39,179.06l4.72-19.41c1.06-4.37-1.34-5.85-3.87-5.85s-5.73,1.48-6.79,5.85l-4.72,19.41h-8.01l7.81-32.1h7.83l-.72,2.96c2.63-2.22,5.86-3.33,8.82-3.33,3.2,0,5.53,1.05,6.89,2.84,1.95,2.59,1.9,5.61,1.05,9.12l-5,20.52h-8.01Z"/><path class="cls-1" d="m823.48,179.43c-6.41,0-13.52-3.45-10.35-16.46,3.16-13,11.93-16.39,18.34-16.39,4.43,0,7.43,1.35,9.55,4.31l-6.74,5.42c-1.23-1.79-2.47-2.53-4.56-2.53-1.91,0-3.55.68-5.07,2.09-1.61,1.53-2.68,3.7-3.51,7.09-.82,3.39-.81,5.61.05,7.15.83,1.42,2.14,2.1,4.06,2.1,2.09,0,3.69-.74,5.79-2.53l4.11,5.36c-3.55,2.96-7.22,4.38-11.66,4.38"/><path class="cls-1" d="m860.37,155.71c-.93-1.23-1.81-1.91-3.79-1.91-2.46,0-5.62,1.84-6.61,5.92l-4.71,19.34h-8.01l7.8-32.09h7.84l-.76,3.08c1.99-1.85,5.46-3.45,8.91-3.45,3.15,0,5.16.8,6.85,3.01l-7.53,6.11Z"/><path class="cls-1" d="m870.13,165.51c-1.01,4.12.8,7.15,5.29,7.15,3.51,0,5.48-.98,8.01-3.02l3.72,4.75c-4.06,3.27-7.64,5.05-13.43,5.05-7.58,0-14.02-3.45-10.85-16.46,2.56-10.47,9.66-16.39,17.98-16.39,8.93,0,12.4,6.53,10.26,15.34l-.87,3.58h-20.09Zm13.64-8.93c-.4-1.91-1.84-3.33-4.55-3.33s-4.85,1.42-6.17,3.33c-.78,1.17-1.17,2.03-1.58,3.45h12.2c.28-1.42.31-2.28.11-3.45"/><path class="cls-1" d="m901.4,179.06c-6.53,0-8.18-4.62-7.07-9.17l3.86-15.9h-3.39l1.48-6.1h3.39l2.31-9.5h8.01l-2.31,9.5h5.67l-1.48,6.1h-5.67l-3.75,15.4c-.45,1.85.17,2.89,2.07,2.89h2.9l-1.65,6.78h-4.37Z"/><path class="cls-1" d="m919.08,165.51c-1,4.12.8,7.15,5.29,7.15,3.52,0,5.49-.98,8.01-3.02l3.71,4.75c-4.06,3.27-7.64,5.05-13.43,5.05-7.58,0-14.02-3.45-10.85-16.46,2.55-10.47,9.66-16.39,17.98-16.39,8.93,0,12.4,6.53,10.25,15.34l-.87,3.58h-20.09Zm13.64-8.93c-.4-1.91-1.84-3.33-4.55-3.33s-4.85,1.42-6.17,3.33c-.78,1.17-1.17,2.03-1.58,3.45h12.2c.29-1.42.31-2.28.11-3.45"/><path class="cls-1" d="m996.97,6.08v13.77h-4.94V6.08h-4.48V1.65h13.9v4.43h-4.48Zm22.04,13.77v-9.34l-2.86,5.58h-4.26l-2.86-5.58v9.34h-4.99V1.65h4.99l4.99,8.95,4.99-8.95h4.99v18.2h-4.99Z"/></g></g></g></svg>