<svg xmlns="http://www.w3.org/2000/svg" viewBox="0 0 300 80" role="img" aria-label="Claude">
  <g fill="#D97757">
    <!-- Claude sunburst mark -->
    <g transform="translate(40,40)">
      <g stroke="#D97757" stroke-width="5.5" stroke-linecap="round">
        <line x1="0" y1="-26" x2="0" y2="-13"/>
        <line x1="18.4" y1="-18.4" x2="9.2" y2="-9.2"/>
        <line x1="26" y1="0" x2="13" y2="0"/>
        <line x1="18.4" y1="18.4" x2="9.2" y2="9.2"/>
        <line x1="0" y1="26" x2="0" y2="13"/>
        <line x1="-18.4" y1="18.4" x2="-9.2" y2="9.2"/>
        <line x1="-26" y1="0" x2="-13" y2="0"/>
        <line x1="-18.4" y1="-18.4" x2="-9.2" y2="-9.2"/>
        <line x1="9.95" y1="-24" x2="4.98" y2="-12"/>
        <line x1="24" y1="-9.95" x2="12" y2="-4.98"/>
        <line x1="24" y1="9.95" x2="12" y2="4.98"/>
        <line x1="9.95" y1="24" x2="4.98" y2="12"/>
        <line x1="-9.95" y1="24" x2="-4.98" y2="12"/>
        <line x1="-24" y1="9.95" x2="-12" y2="4.98"/>
        <line x1="-24" y1="-9.95" x2="-12" y2="-4.98"/>
        <line x1="-9.95" y1="-24" x2="-4.98" y2="-12"/>
      </g>
    </g>
    <!-- Wordmark -->
    <text x="78" y="52" font-family="Georgia, 'Times New Roman', serif" font-size="40" font-weight="400">Claude</text>
  </g>
</svg>
